<?xml version="1.0" encoding="UTF-8"?><svg xmlns="http://www.w3.org/2000/svg" viewBox="0 0 131.43 131.45"><defs><style>.d{fill:#fff;}.e{fill:#e30613;}</style></defs><g id="a"/><g id="b"><g id="c"><path class="e" d="M65.65,131.45C43.83,109.62,21.88,87.68,0,65.8,21.91,43.88,43.86,21.92,65.78,0c21.87,21.87,43.8,43.82,65.65,65.67l-65.78,65.78Zm.16-120.99C47.37,28.9,28.88,47.4,10.39,65.89c18.41,18.37,36.91,36.84,55.34,55.23,18.44-18.44,36.94-36.94,55.36-55.36-18.43-18.44-36.92-36.94-55.28-55.31Z"/><path class="d" d="M65.81,10.45c18.36,18.37,36.85,36.87,55.28,55.31-18.42,18.42-36.91,36.91-55.36,55.36-18.43-18.39-36.93-36.85-55.34-55.23C28.88,47.4,47.37,28.9,65.81,10.45Zm-32.02,57.67c.16,2.97,.88,5.4,2.84,7.32,1.07,1.05,2.31,1.57,3.83,1,.5-.19,1.03-.27,1.54-.41,13.45-3.6,26.9-7.2,40.34-10.84,.69-.19,1.44-.62,1.86-1.17,.51-.66,.79-1.54,.99-2.37,.3-1.25,.95-2.01,2.22-2.34,2.85-.74,5.68-1.53,8.51-2.34,.42-.12,.88-.41,1.14-.75,.6-.77,.5-2.07-.1-2.93-.61-.88-1.34-1.12-2.51-.81-2.35,.63-4.73,1.18-7.05,1.93-1.97,.63-3.55,.53-4.93-1.24-.85-1.09-2.11-1.46-3.57-1.06-13.98,3.77-27.97,7.53-41.96,11.26-1.43,.38-2.32,1.21-2.71,2.58-.23,.8-.32,1.64-.42,2.17Z"/><path d="M33.79,68.13c.1-.53,.19-1.37,.42-2.17,.39-1.36,1.28-2.2,2.71-2.58,13.99-3.73,27.98-7.49,41.96-11.26,1.46-.39,2.72-.03,3.57,1.06,1.38,1.77,2.96,1.87,4.93,1.24,2.32-.75,4.7-1.3,7.05-1.93,1.17-.31,1.9-.08,2.51,.81,.6,.86,.69,2.16,.1,2.93-.27,.34-.72,.63-1.14,.75-2.83,.81-5.66,1.6-8.51,2.34-1.27,.33-1.92,1.09-2.22,2.34-.2,.83-.48,1.71-.99,2.37-.42,.55-1.17,.99-1.86,1.17-13.44,3.64-26.89,7.23-40.34,10.84-.51,.14-1.05,.22-1.54,.41-1.52,.57-2.76,.05-3.83-1-1.96-1.92-2.67-4.35-2.84-7.32Z"/></g></g></svg>