<?xml version="1.0" encoding="UTF-8"?><svg xmlns="http://www.w3.org/2000/svg" viewBox="0 0 143.34 143.32"><defs><style>.d{fill:#fff;}.e{fill:#e30613;}</style></defs><g id="a"/><g id="b"><g id="c"><path class="e" d="M0,71.71C23.77,47.94,47.9,23.82,71.72,0c23.84,23.84,47.97,47.96,71.61,71.6-23.72,23.72-47.93,47.92-71.73,71.72C48.22,119.93,24.01,95.72,0,71.71ZM72,11.36C51.62,31.72,31.27,52.05,11.39,71.92c20.07,20.03,40.52,40.43,60.24,60.11,19.96-19.97,40.38-40.39,60.4-60.42-19.78-19.86-40.08-40.23-60.04-60.26Z"/><path class="d" d="M72,11.36c19.95,20.03,40.25,40.41,60.04,60.26-20.02,20.02-40.44,40.45-60.4,60.42-19.72-19.68-40.17-40.08-60.24-60.11C31.27,52.05,51.62,31.72,72,11.36Zm-31.06,62.72c2.31-6.06-2.2-8.59-6.67-11.12l5.46,10.03h-15.61v7.55h39.94v-8.13c-6.05,.88-11.5,1.83-16.99,2.4-2,.21-4.09-.46-6.14-.73Zm69.26-2.47c-2.32-.86-4.54-2.02-6.89-2.47-2.45-.47-5.08,.03-7.55-.38-4.5-.74-13.09,2.15-15.28,5.68-.4,.65-.12,2.28,.45,2.91,6.63,7.3,20.07,8.58,28.55,3.12-6.43,.62-13.29,1.28-20.16,1.93l-.15-1.2,4.86-.99-.06-.94c-2.73-.15-5.45-.3-8.18-.44v-.62c2.09-.19,4.17-.37,6.26-.56l-.12-1.33h-9.51l-.02-1.12c3.25-.15,6.5-.31,9.75-.46l-.02-1.11c-2.04-.31-4.07-.62-5.94-.91,6.26-3.8,9.87,2.85,15.17,3.59l-4.1-3.09c3.98-6.44,8.79,1.17,12.94-1.61Zm-12.18-17.52v12.75l1.67,.03v-20.52c-2.02-.27-4.61-.57-7.19-.97-5.23-.82-10.43-1.98-15.69-2.35-1.5-.1-3.15,2.08-4.73,3.21,1.23,1.34,2.29,2.92,3.74,3.93,.99,.69,2.53,.61,3.84,.83,5.86,.99,11.72,1.98,18.37,3.09Zm-54.1-7.16v21.92l1.55,.03,1.17-14.52c6.38-1.14,12.49-1.93,18.4-3.46,2.09-.54,5.37-3.01,5.25-4.34-.33-3.58-3.56-3.45-6.6-2.9-6.59,1.19-13.22,2.19-19.78,3.26Zm3.01,25.83c5.33-1.94,5.41-6.48,6.78-10.64-4.69,1.98-7.3,4.91-6.78,10.64Z"/><path d="M40.94,74.08c2.05,.27,4.14,.94,6.14,.73,5.49-.57,10.94-1.52,16.99-2.4v8.13H24.13v-7.55h15.61l1.2,1.09Z"/><path d="M110.2,71.61c-4.16,2.78-8.96-4.83-12.94,1.61l4.1,3.09c-5.3-.74-8.91-7.4-15.17-3.59,1.87,.29,3.9,.6,5.94,.91l.02,1.11c-3.25,.15-6.5,.31-9.75,.46l.02,1.12h9.51l.12,1.33c-2.09,.19-4.17,.37-6.26,.56v.62c2.73,.15,5.45,.3,8.18,.44l.06,.94-4.86,.99,.15,1.2c6.87-.66,13.74-1.32,20.16-1.93-8.48,5.45-21.91,4.18-28.55-3.12-.57-.63-.86-2.25-.45-2.91,2.19-3.53,10.78-6.43,15.28-5.68,2.47,.41,5.1-.09,7.55,.38,2.35,.45,4.57,1.61,6.89,2.47Z"/><path d="M98.02,54.09c-6.65-1.12-12.51-2.1-18.37-3.09-1.3-.22-2.85-.14-3.84-.83-1.45-1.01-2.51-2.59-3.74-3.93,1.58-1.13,3.24-3.31,4.73-3.21,5.26,.36,10.46,1.53,15.69,2.35,2.58,.4,5.17,.7,7.19,.97v20.52l-1.67-.03v-12.75Zm-24.14-5.69c8.2,.67,16.39,1.33,24.59,2l.11-1.42c-6.75-3.87-22.14-5.28-24.7-.58Z"/><path d="M43.92,46.93c6.56-1.07,13.19-2.07,19.78-3.26,3.04-.55,6.27-.67,6.6,2.9,.12,1.33-3.16,3.8-5.25,4.34-5.92,1.52-12.02,2.31-18.4,3.46l-1.17,14.52-1.55-.03v-21.92Zm1.62,2.64l.35,1.48c6.5-.64,13-1.18,19.48-1.99,1.18-.15,2.23-1.36,3.34-2.09-1.29-.62-2.68-1.91-3.87-1.76-5.9,.78-11.75,1.9-17.6,3-.63,.12-1.13,.89-1.7,1.36Z"/><path d="M46.93,72.76c-.52-5.73,2.08-8.67,6.78-10.64-1.37,4.16-1.44,8.71-6.78,10.64Z"/><path d="M40.94,74.08l-1.2-1.09-5.46-10.03c4.47,2.53,8.98,5.06,6.67,11.12Z"/><path class="d" d="M73.88,48.39c2.56-4.71,17.95-3.3,24.7,.58l-.11,1.42c-8.2-.67-16.39-1.33-24.59-2Z"/><path class="d" d="M45.54,49.57c.56-.47,1.07-1.24,1.7-1.36,5.85-1.1,11.7-2.23,17.6-3,1.19-.16,2.57,1.13,3.87,1.76-1.11,.72-2.16,1.94-3.34,2.09-6.47,.81-12.98,1.36-19.48,1.99l-.35-1.48Z"/></g></g></svg>