<?xml version="1.0" encoding="UTF-8"?><svg xmlns="http://www.w3.org/2000/svg" viewBox="0 0 143.71 143.71"><defs><style>.d,.e{fill:#fff;}.e{stroke:#1d1d1b;stroke-miterlimit:10;stroke-width:3px;}.f{fill:#e30613;}</style></defs><g id="a"/><g id="b"><g id="c"><path class="f" d="M0,71.59C23.67,47.92,47.8,23.8,71.59,0c23.96,23.96,48.17,48.17,72.11,72.12-23.78,23.78-47.91,47.91-71.59,71.6C48.31,119.91,24.1,95.7,0,71.59Zm71.21,61.14c20.46-20.51,40.86-40.96,60.47-60.62-19.94-19.93-40.36-40.35-59.78-59.77C52.02,32.22,31.6,52.64,11.36,72.88c19.63,19.64,39.88,39.89,59.84,59.85Z"/><path class="d" d="M71.21,132.74c-19.96-19.96-40.21-40.22-59.84-59.85C31.6,52.64,52.02,32.22,71.89,12.35c19.42,19.42,39.85,39.84,59.78,59.77-19.61,19.66-40.01,40.1-60.47,60.62Zm2.52-47.55l-4.93,2.8c-.99,.04-2.51-.33-2.89,.17-4.23,5.59-10.33,6.4-16.63,6.98-1.97,.18-3.87,.97-5.81,1.48l.24,1.04h58.9l.83-1.09c-2.57-2.6-3.23-7.1-9-6.63l3.11-2.62-3.69-5.36c3.4-2.59,6.22-5.51,6.36-10.19-4.78-.66-8.76-5.02-13.25-.84h-21.07l-.97-1.38c2.52-2.61,5.04-5.24,7.57-7.84,2.74-2.82,5.5-5.62,9.05-9.25-5.57,2.85-9.72,4.97-13.88,7.09l-1.45-1.42c2.38-5.52,4.77-11.05,7.36-17.06-2.28,2.49-4.2,4.57-6.32,6.88l-1.61-7.29c-2.31,6.17,2.02,13.24-4.95,18.87-1.33-6.84-2.53-13.07-3.77-19.46l-1.85,2.59-3.86-4.67-.53,.43,4.43,11.79-1.11,.47-7.6-4.11-.57,.78c3.48,3.46,6.96,6.92,10.44,10.38l-.91,1.37c-4.15-2.3-8.07-3.46-11.1,1.57,8.92,.43,13.23,4.24,11.78,10.73h-11.3l.02,.62,11.59,.51c1.12,6.22,1.42,11.55-6.91,13.76,5.07,.71,8.62,1.22,12.17,1.72l-.29-.91,11.55-2.05c.29,.03,.57,.08,.86,.13Z"/><path d="M72.87,85.05l-11.55,2.05,.29,.91c-3.55-.5-7.1-1-12.17-1.72,8.33-2.21,8.03-7.54,6.91-13.76l-11.59-.51-.02-.62h11.3c1.45-6.49-2.86-10.3-11.78-10.73,3.03-5.03,6.96-3.87,11.1-1.57l.91-1.37c-3.48-3.46-6.96-6.92-10.44-10.38l.57-.78,7.6,4.11,1.11-.47-4.43-11.79,.53-.43,3.86,4.67,1.85-2.59c1.24,6.39,2.45,12.62,3.77,19.46,6.97-5.63,2.64-12.7,4.95-18.87l1.61,7.29c2.12-2.31,4.04-4.4,6.32-6.88-2.59,6.01-4.97,11.53-7.36,17.06l1.45,1.42c4.15-2.12,8.31-4.24,13.88-7.09-3.55,3.63-6.31,6.43-9.05,9.25-2.53,2.61-5.05,5.23-7.57,7.84l.97,1.38h21.07l-5.54,5.22,1.49-3.47h-16.77c-1.28,5.02-.5,8.51,4.64,10.01,.85,.25,1.39,1.54,2.08,2.35Z"/><path d="M93.85,81.96l3.69,5.36-3.11,2.62c5.77-.47,6.43,4.04,9,6.63l-.83,1.09H43.72l-.24-1.04c1.93-.51,3.84-1.3,5.81-1.48,6.3-.59,12.4-1.39,16.63-6.98,.38-.5,1.9-.13,2.89-.17,2.9,4.49,6.4,4.97,9.66,1.38,.75-.83,1.69-1.61,2.69-2.05,4.2-1.86,8.46-3.58,12.7-5.35Z"/><path class="e" d="M93.85,81.96c-4.24,1.77-8.5,3.49-12.7,5.35-1.01,.45-1.94,1.23-2.69,2.05-3.26,3.58-6.76,3.11-9.66-1.38,1.64-.93,3.29-1.87,4.93-2.8,2.57-3.01,5.14-6.02,7.7-9.02l5.54-5.22c4.49-4.18,8.46,.18,13.25,.84-.14,4.68-2.96,7.6-6.36,10.19Z"/><path class="d" d="M81.43,76.16c-2.57,3.01-5.14,6.02-7.7,9.02-.28-.06-.57-.1-.86-.13-.68-.81-1.23-2.11-2.08-2.35-5.14-1.49-5.92-4.99-4.64-10.01h16.77l-1.49,3.47Z"/></g></g></svg>