<?xml version="1.0" encoding="UTF-8"?><svg xmlns="http://www.w3.org/2000/svg" viewBox="0 0 147.87 147.9"><defs><style>.d{fill:#fff;}.e{fill:#e30613;}</style></defs><g id="a"/><g id="b"><g id="c"><path class="e" d="M73.89,147.9C49.34,123.36,24.64,98.65,0,74.02,24.66,49.35,49.35,24.65,73.99,0c24.59,24.6,49.28,49.31,73.88,73.92-24.58,24.58-49.3,49.3-73.98,73.98Zm.16-11.69c20.69-20.69,41.52-41.52,62.26-62.26-20.74-20.75-41.54-41.57-62.28-62.31-20.76,20.76-41.56,41.57-62.34,62.35,20.76,20.72,41.59,41.5,62.36,62.22Z"/><path class="d" d="M74.05,137.59c-20.76-20.72-41.59-41.5-62.36-62.22,20.78-20.78,41.58-41.59,62.34-62.35,20.74,20.75,41.54,41.56,62.28,62.31-20.74,20.74-41.57,41.57-62.26,62.26Zm-.31-56.19c.1,.13,.18,.27,.31,.37,2.07,1.67,4.15,3.34,6.23,5.01,.71,.57,1.42,1.13,2.14,1.7l.22-.2c-.35-.43-.64-.94-1.07-1.26-2.35-1.77-4.74-3.5-7.12-5.23-.22-.16-.47-.26-.71-.38-.38-.48-.13-.76,.3-1.01,3.94,3.07,7.86,6.13,11.82,9.22l.59-.57c-2.27-1.64-4.47-3.24-6.67-4.84-1.71-1.24-3.42-2.46-5.11-3.72-.18-.13-.25-.42-.36-.63,.24,.04,.49,.07,.72,.13,.1,.03,.19,.11,.29,.17,3.02,1.84,6.04,3.68,9.06,5.52,.32,.19,.64,.38,.96,.57l.21-.24c-.41-.41-.75-.92-1.24-1.2-2.76-1.56-5.55-3.07-8.33-4.59-.46-.25-.92-.51-1.41-.78l.53-1.08,6.36,1.68-.06,.31c-.38-.04-.79-.03-1.15-.14-.82-.25-1.28,0-1.43,.93,.66,.46,1.28,1.18,2.03,1.38,1.66,.44,3.4,.63,5.09,.92,.41-1-.07-1.67-.62-2.41l6.42,1.61,.29-2.25c-5.64-.8-11.19-1.58-16.76-2.36l.1-.55-3.68-3.2c-.03,.58,0,.92-.07,1.24-.06,.3-.13,.7-.34,.86-.78,.59-1.62,1.1-2.46,1.66l-3.84-3.24c-.69,.59-1.37,1.13-1.99,1.73-.5,.49-.97,.61-1.65,.38-.96-.33-1.96-.54-2.91-.79-.3,.93,.69,1.68,.17,2.55l.45,.06c-.27,.27-.57,.38-.87,.46-1.92,.51-3.84,1.03-5.77,1.53-.47,.12-.78,.27-.56,.87,1.98-.64,3.92-1.27,5.86-1.9,1.69-.55,1.83-.48,2.6,1.19-4.57,3.65-9.16,7.31-13.78,11.01l1.04,.98c2.69-2.45,5.33-4.85,7.82-7.12,.55,.32,.97,.66,1.45,.81,.37,.11,.81-.03,1.22-.05,.92-.05,1.41-.88,1.15-1.51-.21-.51-1.21-.68-1.89-1.02l3.22-2.94c.52,.46,.94,.88,1.41,1.23,3.33,2.48,7.67,2.25,10.74-.55,.32-.29,.59-.6,1.06-.32Zm-6.87-6.44c.48-.56,.9-1.13,1.39-1.62,.54-.54,.75-1.06,.31-1.78-.22-.36-.31-.8-.48-1.28l2.72,.24,.45-1.55h1.57l-1.72,1.96c1.21-.68,1.69-2.4,3.74-2-.8-.71-.61-1.2-.07-1.47,.82-.43,1.71-.73,2.6-1.1l.47,1.32c2.7-1.9,4.13-3.6,4.55-5.41-.67,.55-1.35,1.05-1.97,1.62-.72,.66-1.52,.43-2.54,.42,6.14-6.21,12.12-12.26,18.12-18.34l-1.02-1.09c-2.41,2.62-4.74,5.17-7.07,7.71-2.36,2.57-4.78,5.08-7.07,7.71-2.23,2.57-4.84,4.78-6.91,7.51l-1.73-1.45,9.06-15.61-1.04-.65c-2.63,5.19-5.23,10.3-7.83,15.42l-.13-.06c3.47-9.7,6.95-19.4,10.44-29.15l-2.03-.93c-3.53,10.04-7.02,20-10.53,29.99-2.49-.73-4.88-.74-7.16,.53-2.26,1.26-3.65,3.23-4.49,5.67l-3.18-2.32-.16,.17c.27,.28,.51,.59,.82,.82,.84,.65,1.83,1.15,2.52,1.93,.82,.91,1.61,1.42,2.87,1.14,1.25-.28,2.42-.05,3.53,.66,.61,.39,1.3,.65,1.99,.99Zm52.38-8.18c-14.32,2.43-28.54,4.84-42.77,7.25l.02,.16c14.24-1.93,28.48-3.87,42.74-5.81v-1.6Zm-38.19,9.8v.06l32.56,1.51,.07-.26c-.41-.14-.81-.38-1.23-.4-5.98-.23-11.97-.42-17.95-.62-.26,0-.51-.03-.89-.05l1.35-1.65c-1.65-.74-3.23-1.46-4.82-2.16-.15-.07-.4-.06-.54,.03-1.01,.66-2,1.35-3.1,2.1l.27,1.43h-5.74Zm32.89-12.93c-.37-1.31-.37-1.31-1.5-1.02-8.7,2.25-17.41,4.51-26.11,6.76-3.36,.87-6.72,1.73-10.07,2.6l.04,.18c12.55-2.84,25.09-5.69,37.64-8.53Zm-40.38-13.95l.19,.11c-1.25,4.88-2.5,9.76-3.74,14.64l.14,.04,5.96-18.52-1.16-.71-1.12,4.22c-.36-.62-.56-1.24-.77-1.87-.12-.39-.14-.8-.76-.81-.55,0-.83,.18-.95,.69-.04,.18-.16,.35-.25,.53l-.95-.22c-.08,.31-.15,.58-.21,.84-.17,.78-.64,1.65,.61,2.03,.14,.04,.21,.37,.28,.58,.13,.39,.24,.8,.36,1.23l2.37-2.8Zm.36,21.09l.08,.13c.37-.22,.75-.43,1.12-.66,6.58-4.08,13.16-8.17,19.74-12.25,1.21-.75,1.32-1.03,.91-2.62-7.3,5.15-14.58,10.28-21.85,15.4Zm31.44-17.72c-.1,.3-.19,.53-.26,.76q-.58,1.83-2.49,1.94c-.9,.06-1.83,1.85-1.34,2.6,.04,.06,.13,.1,.2,.14,.5,.29,1.01,.57,1.58,.89l1.41-1.57,2.8,1.85c.56-2.59-.26-4.67-1.89-6.62Zm-48.24,23.02c-1.55-.13-3.17-.23-4.78-.41-.93-.1-1.84-.42-2.77-.49-.62-.05-1.27,.27-1.9,.24-2.1-.1-4.2-.28-6.3-.42-1.39-.09-2.78-.15-4.17-.23l-.07,.26c.33,.12,.65,.32,.98,.34,2.27,.12,4.54,.2,6.81,.3,1.13,.05,2.25,.12,3.44,.19l-.42,.93c.46,.33,.83,.74,1.28,.89,.65,.21,1.39,.38,2.05,.28,.49-.07,.92-.59,1.38-.91l.17,.14v-1.12h4.3Zm-27.8,5.17l.18,.33,24.22-3.27c-2.35,.11-4.7,.32-7.02,.66-1.38,.21-2.64,.27-3.62-.95-.17-.21-.42-.4-.67-.5-.29-.13-.76-.32-.91-.19-.46,.38-1.35,.48-1.15,1.46l3.4,.32c-.17,.17-.34,.23-.52,.25-4.4,.51-8.81,1.01-13.21,1.54-.25,.03-.47,.24-.71,.36Zm7.69,2.77c6.82-1.68,13.59-3.35,20.35-5.02-.22-.12-.41-.1-.59-.06-2.46,.54-4.92,1.08-7.39,1.63-3.86,.85-7.72,1.7-11.57,2.57-.38,.09-.99,.04-.8,.89Zm51.13-18.68l-12.28,5.8c.23,.08,.41,.03,.59-.04,3.71-1.43,7.41-2.87,11.12-4.27,.79-.3,1-.69,.56-1.5Zm-45.42,21.26l-1.35-.78c-1.25,1.68,.07,2.62,.96,3.83,.14-.39,.22-.69,.36-.95,.09-.16,.28-.34,.46-.38,1.03-.25,1.3-.57,1.36-1.64q-1.16-.6-1.78-.08Zm37.91-32.46c-.94,1.22-1.47,2.91,.41,3.72,1.36-1.36,1.48-2.1,.66-3.66l-1.08-.06Zm11.25,10.18l4.2,.53-2.78-2.78-1.42,2.25Zm-44.49,21.79l.23,.16,10.02-5.9c-3.36,1.61-6.63,3.37-9.89,5.15-.18,.1-.25,.39-.37,.59Zm11.1-11.09l.03-.14c-2.75-.63-5.49-1.27-8.25-1.86-.3-.06-.68,.21-1.02,.33l.08,.25,9.16,1.42Zm-11.39,6.88l-.08,.22c.69,.29,.85,1.56,1.97,.99,.27-.14,.39-.6,.67-1.07l-2.55-.14Zm10.87-8.56l.07-.17-4.6-2.42-.15,.3,4.68,2.3Z"/><path d="M66.86,74.95c-.7-.34-1.39-.6-1.99-.99-1.1-.71-2.28-.93-3.53-.66-1.25,.28-2.05-.23-2.87-1.14-.69-.77-1.68-1.28-2.52-1.93-.3-.23-.55-.55-.82-.82l.16-.17,3.18,2.32c.84-2.45,2.23-4.42,4.49-5.67,2.28-1.27,4.66-1.26,7.16-.53,3.51-9.99,7-19.95,10.53-29.99l2.03,.93c-3.49,9.75-6.97,19.45-10.44,29.15l.13,.06c2.6-5.12,5.2-10.23,7.83-15.42l1.04,.65-9.06,15.61,1.73,1.45c2.08-2.73,4.68-4.94,6.91-7.51,2.29-2.63,4.71-5.14,7.07-7.71,2.33-2.54,4.67-5.09,7.07-7.71l1.02,1.09c-6.01,6.08-11.99,12.13-18.12,18.34,1.02,.01,1.82,.24,2.54-.42,.62-.57,1.3-1.07,1.97-1.62-.42,1.81-1.84,3.51-4.55,5.41l-.47-1.32c-.89,.37-1.77,.68-2.6,1.1-.53,.28-.73,.77,.07,1.47-2.05-.4-2.53,1.31-3.74,2l1.72-1.96h-1.57l-.45,1.55-2.72-.24c.17,.47,.26,.92,.48,1.28,.44,.71,.24,1.23-.31,1.78-.49,.49-.91,1.06-1.39,1.62Z"/><path d="M73.74,81.4c-.47-.28-.74,.03-1.06,.32-3.07,2.8-7.41,3.03-10.74,.55-.47-.35-.89-.77-1.41-1.23l-3.22,2.94c.68,.34,1.68,.51,1.89,1.02,.26,.63-.23,1.46-1.15,1.51-.41,.03-.85,.16-1.22,.05-.48-.14-.9-.49-1.45-.81-2.5,2.27-5.13,4.67-7.82,7.12l-1.04-.98c4.63-3.7,9.21-7.36,13.78-11.01-.77-1.68-.9-1.74-2.6-1.19-1.94,.63-3.88,1.26-5.86,1.9-.22-.6,.09-.75,.56-.87,1.93-.49,3.85-1.01,5.77-1.53,.3-.08,.6-.19,.87-.46l-.45-.06c.52-.87-.47-1.62-.17-2.55,.95,.25,1.95,.46,2.91,.79,.68,.23,1.15,.11,1.65-.38,.62-.61,1.3-1.14,1.99-1.73l3.84,3.24c.85-.56,1.69-1.07,2.46-1.66,.21-.16,.28-.56,.34-.86,.06-.32,.04-.66,.07-1.24l3.68,3.2-.1,.55c5.57,.78,11.11,1.57,16.76,2.36l-.29,2.25-6.42-1.61c.55,.73,1.04,1.4,.62,2.41-1.69-.29-3.42-.47-5.09-.92-.76-.2-1.38-.92-2.03-1.38,.15-.92,.61-1.18,1.43-.93,.36,.11,.77,.1,1.15,.14l.06-.31-6.36-1.68-.53,1.08c.49,.27,.95,.53,1.41,.78,2.78,1.53,5.57,3.03,8.33,4.59,.48,.27,.83,.79,1.24,1.2l-.21,.24c-.32-.19-.64-.37-.96-.57-3.02-1.84-6.04-3.68-9.06-5.52-.1-.06-.18-.15-.29-.17-.24-.06-.48-.09-.72-.13,.12,.22,.19,.5,.36,.63,1.69,1.25,3.4,2.48,5.11,3.72,2.2,1.6,4.4,3.19,6.67,4.84l-.59,.57c-3.96-3.09-7.88-6.14-11.82-9.22-.43,.25-.68,.53-.3,1.01h0Z"/><path d="M119.24,66.78v1.6c-14.26,1.94-28.5,3.87-42.74,5.81l-.02-.16c14.22-2.41,28.44-4.82,42.77-7.25Z"/><path d="M81.05,76.58h5.74l-.27-1.43c1.11-.75,2.1-1.44,3.1-2.1,.13-.09,.39-.09,.54-.03,1.59,.7,3.17,1.41,4.82,2.16l-1.35,1.65c.37,.02,.63,.04,.89,.05,5.98,.2,11.97,.4,17.95,.62,.41,.02,.82,.26,1.23,.4l-.07,.26-32.57-1.51v-.06Z"/><path d="M113.95,63.65c-12.55,2.84-25.1,5.69-37.64,8.53l-.04-.18c3.36-.87,6.72-1.73,10.07-2.6,8.7-2.25,17.41-4.51,26.11-6.76,1.13-.29,1.13-.29,1.5,1.02Z"/><path d="M73.57,49.7l-2.37,2.8c-.13-.44-.23-.84-.36-1.23-.07-.21-.14-.54-.28-.58-1.25-.38-.78-1.25-.61-2.03,.06-.27,.13-.53,.21-.84l.95,.22c.09-.19,.21-.35,.25-.53,.12-.51,.39-.7,.95-.69,.62,0,.63,.43,.76,.81,.2,.63,.4,1.25,.77,1.87l1.12-4.22,1.16,.71-5.96,18.52-.14-.04c1.25-4.88,2.5-9.76,3.74-14.64l-.19-.11Z"/><path d="M73.93,70.78c7.27-5.13,14.55-10.26,21.85-15.4,.41,1.59,.3,1.87-.91,2.62-6.58,4.08-13.16,8.17-19.74,12.25-.37,.23-.75,.44-1.12,.66l-.08-.13Z"/><path d="M105.37,53.06c1.63,1.95,2.45,4.03,1.89,6.62l-2.8-1.85-1.41,1.57c-.57-.32-1.07-.6-1.58-.89-.07-.04-.16-.08-.2-.14-.48-.75,.45-2.54,1.34-2.6q1.9-.12,2.49-1.94c.08-.24,.16-.47,.26-.76Z"/><path d="M57.14,76.09h-4.3v1.12l-.17-.14c-.46,.32-.89,.83-1.38,.91-.66,.1-1.4-.07-2.05-.28-.46-.15-.83-.56-1.28-.89l.42-.93c-1.19-.07-2.31-.14-3.44-.19-2.27-.1-4.54-.18-6.81-.3-.33-.02-.65-.22-.98-.34l.07-.26c1.39,.08,2.78,.14,4.17,.23,2.1,.14,4.2,.32,6.3,.42,.63,.03,1.28-.29,1.9-.24,.93,.07,1.84,.38,2.77,.49,1.61,.18,3.23,.28,4.78,.41Z"/><path d="M29.33,81.26c.23-.12,.46-.33,.71-.36,4.4-.52,8.81-1.03,13.21-1.54,.18-.02,.35-.08,.52-.25l-3.4-.32c-.2-.98,.7-1.08,1.15-1.46,.15-.13,.62,.07,.91,.19,.25,.11,.5,.29,.67,.5,.98,1.23,2.23,1.16,3.62,.95,2.32-.34,4.67-.55,7.02-.66l-24.22,3.27-.18-.33Z"/><path d="M37.03,84.03c-.19-.85,.42-.8,.8-.89,3.85-.87,7.71-1.72,11.57-2.57,2.46-.54,4.92-1.09,7.39-1.63,.19-.04,.38-.05,.59,.06-6.76,1.67-13.53,3.34-20.35,5.02Z"/><path d="M88.16,65.34c.44,.81,.23,1.2-.56,1.5-3.72,1.39-7.42,2.84-11.12,4.27-.17,.07-.35,.12-.59,.04l12.28-5.8Z"/><path d="M42.74,86.6q.62-.51,1.78,.08c-.05,1.07-.33,1.38-1.36,1.64-.18,.04-.36,.22-.46,.38-.15,.26-.22,.56-.36,.95-.89-1.21-2.21-2.16-.96-3.83l1.35,.78Z"/><path d="M80.65,54.14l1.08,.06c.82,1.55,.69,2.3-.66,3.66-1.88-.81-1.35-2.5-.41-3.72Z"/><path d="M91.9,64.32l1.42-2.25,2.78,2.78-4.2-.53Z"/><path d="M73.73,81.41c.24,.13,.5,.23,.71,.38,2.38,1.73,4.77,3.46,7.12,5.23,.43,.32,.71,.84,1.07,1.26l-.22,.2c-.71-.57-1.43-1.13-2.14-1.7-2.08-1.67-4.16-3.34-6.23-5.01-.12-.1-.21-.25-.31-.37h0Z"/><path d="M47.41,86.11c.12-.2,.19-.49,.37-.59,3.26-1.79,6.53-3.55,9.89-5.15l-10.02,5.9-.23-.16Z"/><path d="M58.52,75.01l-9.16-1.42-.08-.25c.34-.12,.71-.4,1.02-.33,2.76,.59,5.5,1.23,8.25,1.86l-.03,.14Z"/><path d="M47.13,81.89l2.55,.14c-.28,.47-.39,.93-.67,1.07-1.11,.57-1.28-.7-1.97-.99l.08-.22Z"/><path d="M57.99,73.33l-4.68-2.3,.15-.3,4.6,2.42-.07,.17Z"/></g></g></svg>