<?xml version="1.0" encoding="UTF-8"?><svg xmlns="http://www.w3.org/2000/svg" viewBox="0 0 131.61 131.61"><defs><style>.d{fill:#fff;}.e{fill:#e30613;}</style></defs><g id="a"/><g id="b"><g id="c"><path class="e" d="M65.85,131.61C43.87,109.63,21.95,87.72,0,65.77,21.71,43.98,43.65,21.97,65.54,0c22.03,22.03,44.03,44.03,66.07,66.07-21.96,21.88-43.97,43.81-65.77,65.54Zm-.1-10.18c18.49-18.41,37.04-36.88,55.68-55.44-18.65-18.65-37.18-37.18-55.81-55.81C47.04,28.85,28.57,47.4,10.18,65.87c18.57,18.57,37.03,37.03,55.57,55.57Z"/><path class="d" d="M65.75,121.43c-18.54-18.54-37-37-55.57-55.57C28.57,47.4,47.04,28.85,65.63,10.18c18.62,18.62,37.16,37.16,55.81,55.81-18.65,18.57-37.2,37.04-55.68,55.44Zm13.91-63.4c2.49-5.08,1.51-14.92-1.5-17.67-.22,1.59-.41,3.15-.65,4.7-.26,1.66-.53,3.33-1.51,4.77-.75,1.1-1.8,1.66-2.97,1.89,.06-1.84,.26-3.61,.15-5.35-.13-2.19-1.2-4.12-2.14-6.07-2.08-4.33-4.48-8.54-5.33-13.42-.52,1.18-1.15,2.35-1.3,3.58-.3,2.47-.45,4.97-.47,7.46-.04,3.49-.51,6.88-1.78,10.14-.3,.77-.63,1.52-.95,2.28l-.28,.02c-.37-.68-.85-1.32-1.09-2.04-.47-1.41-.73-2.88-1.22-4.28-.42-1.2-.93-2.4-1.6-3.48-.58-.93-1.6-1.31-2.6-1.3,0,1.32,.07,2.55-.02,3.76-.07,.91-.37,1.81-.56,2.71-.46,2.27-.81,4.55-.23,6.84,.28,1.09,.71,2.14,1.09,3.28-1.32-.59-2.28-1.51-3.1-2.6-.71-.94-1.34-1.95-2.07-2.87-.56-.71-1.23-1.33-1.96-2.11,.17,6.58-.21,12.99,3.34,18.82-4.32-.2-6.65-3.3-9.51-5.91,.27,1.36,.49,2.51,.73,3.66,.88,4.14,1.83,8.26,3.54,12.17,1.65,3.76,4.19,6.6,8.25,7.73,2.04,.57,4.16,.88,6.26,1.22,1.33,.22,2.68,.28,4.02,.42-2.7-.99-5.16-2.27-7.17-4.32-1.98-2.02-3.39-4.36-3.94-7.16,2.2,2.18,5.42,2.78,7.78,2.67-.17-.29-.32-.54-.47-.8-.89-1.53-1.84-3.02-2.63-4.6-.36-.72-.56-1.61-.55-2.41,.01-1.01,.31-2.02,.49-3.03l.21-.18c1.07,2.88,2.85,4.97,6.04,5.6-.84-2.67-.19-5.19,.61-7.69,.91-2.83,1.83-5.66,1.42-8.24,.38,.29,1.07,.73,1.67,1.27,1.61,1.46,2.59,3.3,3.13,5.38,.72,2.74,.9,5.53,.87,8.35,0,.29,0,.58,0,.8,1.21-.86,2.32-1.76,3.53-2.47,.84-.49,1.51-1.05,1.93-1.91,.16-.34,.33-.67,.56-1.12,1.12,4.63-.94,8.01-3.9,11.15,2.52,.77,4.58-.18,6.47-1.29-1.37,4.46-4.53,7.5-8.32,10.07,1.22,.04,2.36,.02,3.49-.14,3.98-.55,7.43-2.15,10.05-5.27,4.03-4.81,4.75-10.59,4.81-16.6-1,3.25-3.65,3.91-6.69,4.39,2.28-2.5,3.48-5.29,4-8.39,.52-3.11,.2-6.12-1.25-9.14-.98,1.4-1.83,2.71-2.79,3.94-.97,1.25-2.14,2.27-3.86,2.81Zm7.11,32.53H47.01v4.08h39.76v-4.08Z"/><path d="M79.66,58.03c1.72-.54,2.89-1.56,3.86-2.81,.95-1.23,1.81-2.54,2.79-3.94,1.46,3.02,1.77,6.02,1.25,9.14-.52,3.1-1.72,5.9-4,8.39,3.04-.48,5.7-1.14,6.69-4.39-.06,6.01-.79,11.8-4.81,16.6-2.62,3.12-6.07,4.72-10.05,5.27-1.13,.16-2.28,.18-3.49,.14,3.79-2.57,6.95-5.61,8.32-10.07-1.88,1.11-3.94,2.07-6.47,1.29,2.96-3.13,5.02-6.52,3.9-11.15-.22,.45-.39,.78-.56,1.12-.42,.87-1.09,1.42-1.93,1.91-1.22,.71-2.33,1.61-3.53,2.47,0-.22,0-.51,0-.8,.02-2.82-.15-5.61-.87-8.35-.55-2.08-1.53-3.92-3.13-5.38-.6-.54-1.29-.99-1.67-1.27,.4,2.59-.52,5.41-1.42,8.24-.8,2.5-1.45,5.02-.61,7.69-3.19-.62-4.97-2.71-6.04-5.6l-.21,.18c-.18,1.01-.48,2.02-.49,3.03,0,.81,.19,1.69,.55,2.41,.79,1.58,1.74,3.07,2.63,4.6,.15,.26,.3,.52,.47,.8-2.35,.12-5.58-.48-7.78-2.67,.55,2.79,1.96,5.13,3.94,7.16,2,2.05,4.47,3.33,7.17,4.32-1.34-.13-2.69-.2-4.02-.42-2.1-.34-4.22-.65-6.26-1.22-4.05-1.13-6.6-3.97-8.25-7.73-1.71-3.9-2.66-8.03-3.54-12.17-.24-1.15-.46-2.3-.73-3.66,2.86,2.61,5.2,5.71,9.51,5.91-3.55-5.82-3.17-12.24-3.34-18.82,.74,.78,1.4,1.4,1.96,2.11,.73,.92,1.36,1.93,2.07,2.87,.82,1.08,1.78,2,3.1,2.6-.38-1.14-.81-2.19-1.09-3.28-.58-2.29-.23-4.57,.23-6.84,.18-.91,.48-1.8,.56-2.71,.1-1.21,.02-2.44,.02-3.76,1-.01,2.02,.37,2.6,1.3,.67,1.07,1.18,2.28,1.6,3.48,.49,1.4,.75,2.87,1.22,4.28,.24,.72,.72,1.36,1.09,2.04l.28-.02c.32-.76,.65-1.51,.95-2.28,1.28-3.26,1.75-6.65,1.78-10.14,.03-2.49,.17-4.99,.47-7.46,.15-1.23,.78-2.41,1.3-3.58,.85,4.88,3.26,9.09,5.33,13.42,.93,1.95,2.01,3.88,2.14,6.07,.1,1.75-.09,3.51-.15,5.35,1.17-.22,2.23-.79,2.97-1.89,.98-1.44,1.25-3.11,1.51-4.77,.24-1.55,.43-3.11,.65-4.7,3,2.75,3.99,12.6,1.5,17.67Z"/><path d="M86.77,90.56v4.08H47.01v-4.08h39.76Z"/></g></g></svg>