<?xml version="1.0" encoding="UTF-8"?><svg xmlns="http://www.w3.org/2000/svg" viewBox="0 0 150 150"><defs><style>.d{fill:#fff;}.e{fill:#e30613;}</style></defs><g id="a"/><g id="b"><g id="c"><path class="d" d="M150,150H0V0H150V150Zm-75.18-2.99c24.14-24.15,48.26-48.28,71.87-71.91C122.79,51.18,98.59,26.96,75.05,3.41,51.21,27.26,26.99,51.49,3.17,75.32c23.71,23.72,47.83,47.85,71.65,71.69Z"/><path class="e" d="M74.82,147.01C51,123.18,26.87,99.04,3.17,75.32,26.99,51.49,51.21,27.26,75.05,3.41c23.54,23.56,47.74,47.77,71.64,71.69-23.61,23.63-47.73,47.76-71.87,71.91Zm60.64-71.89c-20.3-20.31-40.64-40.66-60.42-60.45-20.01,20.05-40.42,40.51-60.06,60.18,19.95,19.95,40.39,40.37,60.4,60.38,19.79-19.81,40.14-40.16,60.08-60.12Z"/><path class="d" d="M135.46,75.12c-19.94,19.96-40.29,40.31-60.08,60.12-20.02-20.01-40.45-40.44-60.4-60.38,19.64-19.68,40.05-40.13,60.06-60.18,19.78,19.79,40.13,40.14,60.42,60.45Zm-49.53-29.62c.25-6.58-7.51-10.53-15.03-7.92-4.04,1.4-6.62,3.76-5.9,8.49,1.68,11.02,3.1,22.09,5.17,33.04,.36,1.91,3.36,4.59,5.17,4.6,1.84,.02,4.99-2.57,5.34-4.43,2.12-11.28,3.6-22.67,5.26-33.79Zm-2.25,52.42c.13-4.67-3.73-8.88-8.19-8.91-4.22-.04-8.09,3.87-8.25,8.34-.16,4.51,3.37,8.53,7.68,8.76,4.67,.24,8.62-3.45,8.75-8.19Z"/><path d="M85.93,45.5c-1.66,11.11-3.14,22.51-5.26,33.79-.35,1.86-3.51,4.45-5.34,4.43-1.8-.02-4.81-2.69-5.17-4.6-2.07-10.95-3.49-22.02-5.17-33.04-.72-4.73,1.86-7.09,5.9-8.49,7.52-2.61,15.29,1.33,15.03,7.92Z"/><path d="M83.68,97.92c-.13,4.74-4.08,8.43-8.75,8.19-4.32-.22-7.85-4.25-7.68-8.76,.16-4.47,4.03-8.38,8.25-8.34,4.46,.04,8.32,4.24,8.19,8.91Z"/></g></g></svg>