<?xml version="1.0" encoding="UTF-8"?><svg xmlns="http://www.w3.org/2000/svg" viewBox="0 0 143.5 143.42"><defs><style>.d{fill:#fff;}.e{fill:#e30613;}</style></defs><g id="a"/><g id="b"><g id="c"><path class="e" d="M0,71.75C23.81,47.96,47.95,23.84,71.81,0l71.69,71.64c-23.76,23.76-47.98,47.96-71.8,71.78C48.26,119.99,24.04,95.78,0,71.75Zm132.12,.81c-20.38-20.34-40.84-40.75-60.67-60.55C51.69,31.75,31.32,52.08,11.49,71.88c20.07,20.06,40.51,40.48,60.66,60.62,19.9-19.89,40.26-40.24,59.97-59.95Z"/><path class="d" d="M132.12,72.56c-19.72,19.71-40.07,40.05-59.97,59.95-20.15-20.14-40.59-40.56-60.66-60.62C31.32,52.08,51.69,31.75,71.45,12.01c19.84,19.79,40.29,40.21,60.67,60.55Zm-40.18,2.46c-2.28,1.71-4.46,3.57-6.85,5.09-5.75,3.67-6.06,5.96-.82,10.1,3.75,2.96,7.74,5.62,11.83,8.56,3.33-3.09,6.27-5.76,9.14-8.5,5.3-5.05,3.55-13.31-3.09-16.24-3.91-1.72-7.05-.19-10.39,1.18l1.42-3.97c-2.78-.88-5.31-1.68-7.83-2.5-5.31-1.72-5.47-3.56-3.18-8.76,2.5-5.68,4.75-11.78,5.44-17.88,.96-8.5-7.32-17.06-15.26-17.2-8.76-.16-16.22,7.03-15.5,16.46,.46,6.08,2.67,12.19,4.96,17.94,1.93,4.85,1.56,7.28-3.25,9.09-2.5,.94-4.98,1.94-7.46,2.91l-.17,1.73c4.97,1.68,10.08,3.03,14.85,5.16,3.6,1.61,3.86-.1,4.18-2.78,.66-5.45,1.44-10.88,2.17-16.32l1.29-.13c.91,6.99,1.83,13.99,2.74,20.94,5.66-1.74,10.73-3.3,15.8-4.86Zm-54.14,6.88c-.04,3.91,7.96,15.04,11.2,15.67,1.02,.2,2.22-.37,3.31-.67,3.56-.98,4.69-5.39,9.51-5.52,3.32-.09,3.11-7.55-.28-10.02-2.6-1.89-5.45-3.53-7.75-5.73-3.43-3.29-6.88-3.17-10.92-1.44-3.71,1.59-5.61,4.01-5.08,7.72Zm57.46,17.48c-5.35-2.51-9.77-4.85-14.4-6.67-4.18-1.64-6.6,.48-6.09,4.85,.09,.82,.43,1.86,.08,2.44-3.7,6.15-.5,12.73-1.08,19.26,6.91-6.39,13.82-12.79,21.48-19.88Zm-23.7,18.46c-.35-6.82-.85-14.62-1.1-22.44-.12-3.62-3.07-3.74-4.78-3.14-5.05,1.78-9.84,4.3-14.55,6.44,6.77,6.34,13.58,12.72,20.43,19.13Z"/><path d="M91.94,75.03c-5.07,1.56-10.14,3.12-15.8,4.86-.91-6.95-1.82-13.94-2.74-20.94l-1.29,.13c-.73,5.44-1.51,10.88-2.17,16.32-.32,2.68-.58,4.39-4.18,2.78-4.77-2.13-9.88-3.48-14.85-5.16l.17-1.73c2.49-.97,4.97-1.97,7.46-2.91,4.81-1.81,5.18-4.24,3.25-9.09-2.29-5.75-4.5-11.85-4.96-17.94-.72-9.43,6.74-16.62,15.5-16.46,7.94,.14,16.22,8.7,15.26,17.2-.69,6.1-2.94,12.2-5.44,17.88-2.29,5.19-2.12,7.03,3.18,8.76,2.52,.82,5.06,1.61,7.83,2.5l-1.42,3.97,.19-.19Z"/><path d="M91.75,75.21c3.35-1.37,6.48-2.9,10.39-1.18,6.64,2.93,8.39,11.19,3.09,16.24-2.87,2.74-5.81,5.41-9.14,8.5-4.09-2.94-8.08-5.6-11.83-8.56-5.24-4.14-4.93-6.43,.82-10.1,2.39-1.53,4.58-3.38,6.85-5.09l-.19,.19Z"/><path d="M37.8,81.91c-.53-3.71,1.36-6.13,5.08-7.72,4.04-1.73,7.49-1.84,10.92,1.44,2.3,2.21,5.15,3.84,7.75,5.73,3.39,2.47,3.6,9.93,.28,10.02-4.82,.13-5.95,4.54-9.51,5.52-1.09,.3-2.29,.87-3.31,.67-3.24-.64-11.24-11.76-11.2-15.67Z"/><path d="M95.27,99.39c-7.67,7.1-14.58,13.49-21.48,19.88,.58-6.53-2.62-13.11,1.08-19.26,.35-.59,.01-1.62-.08-2.44-.5-4.37,1.91-6.49,6.09-4.85,4.63,1.82,9.04,4.16,14.4,6.67Z"/><path d="M71.57,117.85c-6.84-6.41-13.65-12.79-20.43-19.13,4.71-2.14,9.5-4.66,14.55-6.44,1.71-.6,4.66-.49,4.78,3.14,.25,7.81,.75,15.62,1.1,22.44Z"/></g></g></svg>