<?xml version="1.0" encoding="UTF-8"?><svg xmlns="http://www.w3.org/2000/svg" viewBox="0 0 143.16 143.15"><defs><style>.d{fill:#fff;}.e{fill:#e30613;}</style></defs><g id="a"/><g id="b"><g id="c"><path class="e" d="M71.05,143.15C47.57,119.68,23.54,95.66,0,72.13,24.09,48.03,48.28,23.84,72.11,0c23.32,23.32,47.44,47.43,71.05,71.04-23.58,23.58-47.78,47.77-72.11,72.11ZM11.67,70.84c20.3,20.28,40.73,40.67,60.6,60.53,19.74-19.74,40.07-40.08,59.94-59.95-20.06-20.02-40.5-40.42-60.8-60.68C51.59,30.68,31.32,51.07,11.67,70.84Z"/><path class="d" d="M11.67,70.84C31.32,51.07,51.59,30.68,71.41,10.74c20.3,20.26,40.74,40.65,60.8,60.68-19.87,19.87-40.2,40.2-59.94,59.95-19.88-19.85-40.3-40.25-60.6-60.53Zm78.92-14.6c.25-4.31,.46-8.11,.73-12.76l-5.14,4.02c-1.03-5.34-1.94-10.09-3.07-16l-4.89,9.74-6.33-21.88-1.06,.27-3.47,20.07-1.33-.06-4.62-7.62-1.26,.24c-.6,4.62-1.2,9.24-2.02,15.57l-5.04-7.39-.85,.71c.25,4.33,.49,8.65,.77,13.59l-7.4-3.66c1.81,9.34,2.57,17.52,5.1,25.11,2.47,7.42,4.04,15.96,12.45,20.27-3.37,.16-6.74,.33-10.17,.5v5.39h39.16l-.38-5.41c-4.06-.18-7.74-.35-12.07-.54,14.62-11.51,21.25-31.37,14.82-42.98l-3.94,2.82Z"/><path d="M90.59,56.24l3.94-2.82c6.43,11.61-.2,31.47-14.82,42.98,4.33,.19,8.01,.36,12.07,.54l.38,5.41H53v-5.39c3.43-.17,6.8-.33,10.17-.5-8.42-4.32-9.98-12.86-12.45-20.27-2.53-7.59-3.29-15.77-5.1-25.11l7.4,3.66c-.28-4.94-.52-9.26-.77-13.59l.85-.71,5.04,7.39c.82-6.33,1.42-10.95,2.02-15.57l1.26-.24,4.62,7.62,1.33,.06,3.47-20.07,1.06-.27,6.33,21.88,4.89-9.74c1.13,5.91,2.05,10.65,3.07,16l5.14-4.02c-.27,4.65-.48,8.45-.73,12.76Zm-18.82,35.3c7.62-.06,13.57-6.08,13.54-13.69-.03-7.6-6.02-13.57-13.64-13.59-7.82-.03-13.93,6.15-13.78,13.95,.14,7.59,6.19,13.4,13.88,13.33Zm4.1-32.92c-1.61-4.47-3.02-8.4-4.43-12.33l-1.16,.52-3.67,12.27,9.27-.46Zm-14.03-5.37l-.82,.14c-.37,2.73-.74,5.47-1.24,9.22,2.3-1.38,3.5-2.1,4.75-2.84l-2.69-6.52Zm19.74,.1c-1.66,2.59-2.72,4.25-3.95,6.16,2.17,.94,3.7,1.6,5.8,2.51-.64-2.98-1.13-5.28-1.85-8.67Z"/><path class="d" d="M71.77,91.54c-7.69,.06-13.73-5.74-13.88-13.33-.15-7.8,5.96-13.98,13.78-13.95,7.62,.03,13.61,6,13.64,13.59,.03,7.61-5.92,13.63-13.54,13.69Z"/><path class="d" d="M75.87,58.62l-9.27,.46,3.67-12.27,1.16-.52c1.41,3.93,2.83,7.86,4.43,12.33Z"/><path class="d" d="M61.84,53.25l2.69,6.52c-1.25,.75-2.45,1.46-4.75,2.84,.51-3.75,.87-6.49,1.24-9.22l.82-.14Z"/><path class="d" d="M81.58,53.35c.72,3.39,1.21,5.69,1.85,8.67-2.1-.91-3.62-1.57-5.8-2.51,1.23-1.91,2.29-3.57,3.95-6.16Z"/></g></g></svg>