<?xml version="1.0" encoding="UTF-8"?><svg xmlns="http://www.w3.org/2000/svg" viewBox="0 0 143.37 143.37"><defs><style>.d{fill:#fff;}.e{fill:#e30613;}</style></defs><g id="a"/><g id="b"><g id="c"><path class="e" d="M0,71.56C23.77,47.79,47.89,23.66,71.56,0c23.79,23.79,47.99,48,71.82,71.83-23.46,23.46-47.67,47.66-71.56,71.55C48.15,119.71,23.94,95.5,0,71.56Zm132.16,.34c-20.08-20.07-40.51-40.49-60.09-60.06C52.14,31.77,31.73,52.19,11.83,72.1c19.78,19.78,40.12,40.11,60.07,60.06,19.97-19.98,40.31-40.31,60.26-60.27Z"/><path class="d" d="M132.16,71.89c-19.95,19.95-40.29,40.29-60.26,60.27-19.95-19.95-40.29-40.29-60.07-60.06C31.73,52.19,52.14,31.77,72.07,11.84c19.58,19.57,40.01,39.99,60.09,60.06Zm-71.1,3.03c-6.64,3-11.28,7.1-18.01,4.96-1.52-.49-3.89,1.67-5.87,2.62,.96,1.53,1.89,3.07,2.87,4.58,.6,.92,1.18,1.87,1.91,2.66,1.25,1.35,2.57,3.57,3.94,3.62,1.51,.06,4-1.59,4.51-3.04,2.29-6.51,8.89-6.32,13.4-9.31,6.1,3.6,11.89,1.29,18.25,.43,4.26-.58,11.28,2.39,13.75,8.93,.55,1.45,2.9,2.9,4.52,3.01,1.15,.08,2.54-2.01,3.67-3.27,.74-.82,1.22-1.88,1.8-2.84,1.01-1.64,2.01-3.29,3.01-4.94-2.01-.89-4.4-2.98-5.95-2.47-6.93,2.28-11.44-2.39-17.91-4.86,3-1.53,5.02-2.59,7.06-3.6,4.07-2.03,7.86-5.25,12.94-2.21,.65,.39,2.85-.77,3.58-1.77,1.41-1.92-.95-9.97-3.52-10.49-2.15-.44-4.97,1.09-7.14,2.35-2.5,1.45-4.6,3.57-7.79,6.13,.8-5.07,.61-8.95,2.06-12.08,3.65-7.88,3.79-8.48-2.94-14.31-1.64-1.42-3.25-2.87-4.86-4.31-4.76-4.28-10.43-5.14-16.37-3.78-7.45,1.7-11.98,7.58-16.58,12.99-1.01,1.18-.37,4.11,.08,6.11,.98,4.42,2.32,8.76,3.51,13.13l-1.46,.68c-1.5-1.22-2.91-2.58-4.52-3.64-2.2-1.46-6.11-4.24-6.58-3.77-2.29,2.3-4.34,5.32-5.2,8.43-.93,3.35,1.68,4.98,5.18,4.07,1.69-.44,3.75-1.2,5.16-.63,4.25,1.71,8.26,4,13.48,6.63Z"/><path d="M61.06,74.93c-5.22-2.63-9.23-4.92-13.48-6.63-1.41-.57-3.47,.19-5.16,.63-3.5,.91-6.11-.71-5.18-4.07,.86-3.11,2.91-6.13,5.2-8.43,.47-.47,4.37,2.31,6.58,3.77,1.61,1.06,3.02,2.42,4.52,3.64l1.46-.68c-1.19-4.37-2.53-8.71-3.51-13.13-.44-2-1.08-4.92-.08-6.11,4.59-5.42,9.13-11.29,16.58-12.99,5.94-1.36,11.61-.5,16.37,3.78,1.61,1.45,3.22,2.89,4.86,4.31,6.73,5.83,6.59,6.43,2.94,14.31-1.45,3.13-1.26,7.01-2.06,12.08,3.18-2.56,5.29-4.68,7.79-6.13,2.17-1.26,4.99-2.79,7.14-2.35,2.57,.53,4.93,8.57,3.52,10.49-.73,1-2.93,2.16-3.58,1.77-5.07-3.04-8.87,.18-12.94,2.21-2.04,1.02-4.06,2.07-7.06,3.6,6.47,2.47,10.98,7.14,17.91,4.86,1.54-.51,3.94,1.58,5.95,2.47-1,1.65-2.01,3.3-3.01,4.94-.59,.96-1.06,2.02-1.8,2.84-1.13,1.26-2.52,3.35-3.67,3.27-1.62-.11-3.97-1.57-4.52-3.01-2.47-6.54-9.49-9.51-13.75-8.93-6.36,.87-12.15,3.18-18.25-.43-4.51,2.99-11.12,2.8-13.4,9.31-.51,1.45-2.99,3.09-4.51,3.04-1.36-.05-2.69-2.27-3.94-3.62-.74-.8-1.32-1.75-1.91-2.66-.98-1.51-1.92-3.05-2.87-4.58,1.98-.94,4.34-3.1,5.87-2.62,6.73,2.15,11.37-1.95,18.01-4.96Zm-3.65-32.37c-.24,5.79-.83,10.87-.5,15.88,.14,2.23,1.68,4.81,3.37,6.38,2.46,2.3,5.98,3.21,6.74,7.46,.22,1.25,3.77,2.63,5.78,2.61,2.01-.01,5.56-1.51,5.72-2.7,.53-4.17,3.82-5.06,6.3-7.1,1.66-1.37,3.82-3.33,3.93-5.14,.34-5.39-.23-10.84-.47-16.99,1.31,1.41,2.5,2.7,4.24,4.57-3.22-9.33-15.45-16.43-23.75-14.52-6.84,1.57-15.83,10.36-15.44,14.86l4.08-5.32Zm24.95,26.97c-1.3,5.36-4.75,7.97-9.89,7.87-5.19-.09-8.48-3.13-9.69-9.74-1.91,6.42,.12,9.54,3.86,11.87,4.02,2.51,8,2.79,12.07-.07,3.42-2.4,5.48-5.23,3.65-9.93Zm24.22,14.71l.3-1.51c-1.69-.25-3.37-.53-5.06-.74-3.14-.39-6.36-.43-9.4-1.19-2.8-.7-5.41-2.17-8.1-3.3l-.64,1.4c1.84,.93,3.74,1.77,5.51,2.82,2.39,1.42,4.86,2.79,6.97,4.57,1.63,1.38,2.75,3.35,4.09,5.06,.94-2.33,1.87-4.66,2.84-6.97,.11-.27,.44-.45,.68-.68l2.81,.55Zm-67.1-.72c4.57-1.6,3.54,2.27,4.41,4.32,.52,1.22,1.39,2.3,2.1,3.45,.97-.98,1.91-1.99,2.92-2.94,2.08-1.95,4.06-4.06,6.35-5.73,2.03-1.48,4.42-2.44,7.76-4.23-8.85,1.93-16.19,3.53-23.54,5.12Zm46.01-13.13l.87,1.24c6.55-2.54,12.2-8.63,20.15-4.52-1.13-3.4-1.99-6.01-2.94-8.88-6.19,4.16-12.14,8.16-18.08,12.16Zm-26.16,.63l.55-1.14c-5.73-3.87-11.47-7.74-17.25-11.64l-2.87,9.31c7.88-5.01,13.14,2,19.58,3.47Z"/><path class="d" d="M57.41,42.55l-4.08,5.32c-.39-4.5,8.6-13.28,15.44-14.86,8.29-1.91,20.53,5.19,23.75,14.52-1.74-1.87-2.93-3.16-4.24-4.57,.24,6.15,.81,11.6,.47,16.99-.11,1.81-2.27,3.77-3.93,5.14-2.48,2.05-5.76,2.93-6.3,7.1-.15,1.19-3.71,2.68-5.72,2.7-2.01,.01-5.56-1.37-5.78-2.61-.76-4.25-4.28-5.16-6.74-7.46-1.69-1.58-3.22-4.16-3.37-6.38-.32-5.02,.26-10.09,.5-15.88Zm18.63,12.72l-.61,1.56c1.45,1.61,2.61,3.79,4.42,4.71,2.9,1.48,5.16-.26,6.06-3.13,.31-.99-.53-3.37-.95-3.39-2.96-.16-5.94,.11-8.91,.25Zm-17.16-.23c.15,1.5-.16,3.1,.44,3.6,1.6,1.32,3.88,3.28,5.37,2.91,1.72-.43,2.89-3.08,4.29-4.76-1.81-.68-3.57-1.59-5.44-1.98-1.37-.28-2.88,.11-4.66,.22Zm19.6,15.43c-2.28-3.09-3.88-5.26-5.49-7.43l-5.13,7.43h10.62Z"/><path class="d" d="M82.36,69.52c1.83,4.7-.23,7.53-3.65,9.93-4.07,2.86-8.05,2.58-12.07,.07-3.74-2.33-5.77-5.45-3.86-11.87,1.21,6.61,4.5,9.64,9.69,9.74,5.15,.09,8.59-2.51,9.89-7.87Z"/><path class="d" d="M106.58,84.23l-2.81-.55c-.24,.23-.57,.41-.68,.68-.97,2.32-1.9,4.65-2.84,6.97-1.35-1.71-2.47-3.68-4.09-5.06-2.11-1.78-4.58-3.15-6.97-4.57-1.77-1.05-3.67-1.89-5.51-2.82l.64-1.4c2.69,1.13,5.3,2.6,8.1,3.3,3.04,.76,6.26,.8,9.4,1.19,1.69,.21,3.37,.49,5.06,.74l-.3,1.51Z"/><path class="d" d="M39.47,83.51c7.34-1.6,14.69-3.2,23.54-5.12-3.34,1.78-5.73,2.75-7.76,4.23-2.29,1.67-4.27,3.78-6.35,5.73-1.01,.94-1.95,1.95-2.92,2.94-.71-1.14-1.58-2.22-2.1-3.45-.87-2.04,.16-5.92-4.41-4.32Z"/><path class="d" d="M85.48,70.38c5.95-4,11.9-8,18.08-12.16,.95,2.87,1.82,5.49,2.94,8.88-7.96-4.11-13.6,1.98-20.15,4.52l-.87-1.24Z"/><path class="d" d="M59.32,71.01c-6.43-1.47-11.69-8.48-19.58-3.47l2.87-9.31c5.78,3.9,11.52,7.77,17.25,11.64l-.55,1.14Z"/><path d="M76.04,55.27c2.97-.14,5.96-.42,8.91-.25,.41,.02,1.26,2.4,.95,3.39-.9,2.87-3.15,4.61-6.06,3.13-1.8-.92-2.97-3.09-4.42-4.71l.61-1.56Z"/><path d="M58.88,55.04c1.78-.11,3.29-.51,4.66-.22,1.87,.39,3.63,1.29,5.44,1.98-1.41,1.69-2.57,4.34-4.29,4.76-1.49,.37-3.77-1.59-5.37-2.91-.61-.5-.3-2.11-.44-3.6Z"/><path d="M78.48,70.47h-10.62l5.13-7.43c1.6,2.17,3.21,4.35,5.49,7.43Z"/></g></g></svg>