<?xml version="1.0" encoding="UTF-8"?><svg xmlns="http://www.w3.org/2000/svg" viewBox="0 0 124.65 123.12"><defs><style>.g{fill:#00a0a0;}.h{fill:#ffb027;}</style></defs><g id="a"/><g id="b"><g id="c"><g id="d"><g id="e"><g id="f"><g><g><path class="g" d="M43.12,120.46c0,1.47-1.19,2.66-2.66,2.66h-10.86c-10.82,0-16.23-5.61-16.23-16.84v-31.41c0-.71-.29-1.4-.8-1.9L.8,61.42c-.51-.5-.8-1.18-.8-1.9v-.28c0-.72,.29-1.4,.8-1.9l11.77-11.47c.51-.5,.8-1.19,.8-1.9V16.84C13.37,5.61,18.79,0,29.61,0h10.86c1.47,0,2.66,1.19,2.66,2.66V11.28c0,1.53-1.29,2.75-2.82,2.65h-.1c-1.4-.1-2.49-.14-3.26-.14-5.25,0-7.88,1.9-7.88,5.7v24.04c0,2.58-.25,4.46-.75,5.64s-1.68,2.56-3.53,4.14l-4.95,4.09c-1.28,1.06-1.29,3.01-.02,4.08l4.97,4.19c1.86,1.58,3.06,3.01,3.6,4.28,.45,1.09,.68,2.85,.68,5.3v28.11c0,3.94,2.69,5.91,8.08,5.91,.72,0,1.77-.03,3.12-.1h.07c1.52-.08,2.78,1.13,2.78,2.65v8.65h0Z"/><path class="g" d="M123.88,61.42l-11.78,11.54c-.51,.5-.8,1.18-.8,1.9v31.41c0,11.23-5.43,16.84-16.3,16.84h-10.79c-1.47,0-2.66-1.19-2.66-2.66v-8.68c0-1.5,1.25-2.69,2.74-2.62h.04c1.36,.07,2.4,.1,3.12,.1,5.52,0,8.28-1.97,8.28-5.91v-28.11c0-2.54,.23-4.38,.68-5.54,.45-1.15,1.61-2.5,3.46-4.04l4.97-4.19c1.27-1.07,1.26-3.02-.02-4.08l-4.95-4.09c-1.86-1.54-3.03-2.96-3.53-4.28-.41-1.04-.61-2.87-.61-5.5V19.49c0-3.76-2.69-5.64-8.08-5.64-.77,0-1.86,.03-3.26,.1h-.08c-1.51,.08-2.78-1.13-2.78-2.65V2.66c0-1.47,1.19-2.66,2.66-2.66h10.79c10.87,0,16.3,5.61,16.3,16.84v27.13c0,.72,.29,1.4,.8,1.9l11.77,11.47c.51,.5,.8,1.19,.8,1.9v.28c0,.71-.29,1.4-.8,1.9h.03Z"/></g><path class="h" d="M87.46,45.66c-5.24-.52-9.66-1.21-15.43-.02-1.98,.56-3.7,1.57-7.19,3.73-4.91,3.06-4.31,4.68-12.73,5.16-8.14,.46-8.67-4.16-14.01-6.08-1.33-.48-2.73,.48-2.73,1.9v50.74c0,1.12,.91,2.03,2.03,2.03h49.87c1.12,0,2.03-.91,2.03-2.03V47.68c0-1.04-.8-1.92-1.84-2.02Z"/></g></g></g></g></g></g></svg>