<?xml version="1.0" encoding="UTF-8"?><svg xmlns="http://www.w3.org/2000/svg" viewBox="0 0 48.14 48.15"><defs><style>.d{fill:#9d9d9c;}</style></defs><g id="a"/><g id="b"><g id="c"><g><path class="d" d="M48.14,11.75c-.08,.15-.15,.3-.23,.44-.4,.72-1.24,1.11-2.03,.94-.83-.18-1.45-.87-1.49-1.71-.08-1.56-.7-2.79-2.14-3.48-.48-.23-1.04-.35-1.57-.39-.81-.06-1.62-.02-2.5-.02,0,.69,.02,1.35,0,2.02-.04,.97-.88,1.73-1.87,1.73-.99,0-1.83-.76-1.88-1.73-.02-.5,0-1,0-1.5,0-.15,0-.31,0-.5h-8.56v.88c0,2.01-.56,2.85-1.89,2.85-1.32,0-1.87-.85-1.87-2.87v-.86H13.63c0,.62,0,1.25,0,1.89-.01,.92-.69,1.7-1.58,1.83-.93,.14-1.81-.39-2.09-1.29-.06-.19-.09-.4-.09-.6-.01-.59,0-1.19,0-1.86-1.66,.05-3.36-.31-4.79,.93-.91,.8-1.32,1.82-1.32,2.99,0,9.67-.01,19.34,0,29,0,2.33,1.64,3.92,4,3.93,2.55,0,5.11,0,7.66,0,.97,0,1.77,.72,1.87,1.64,.1,.98-.49,1.85-1.44,2.08-.18,.04-.37,.04-.56,.04-2.6,0-5.2,0-7.8,0-3.74-.01-6.85-2.72-7.4-6.43-.06-.38-.09-.78-.09-1.17C0,30.81,0,21.08,0,11.35c0-3.66,2.47-6.75,6.05-7.43,1.09-.21,2.24-.11,3.37-.15,.12,0,.25,0,.45,0,0-.46,.03-.91,0-1.35-.1-1.15,.33-1.97,1.42-2.41h.94c1.09,.44,1.52,1.26,1.42,2.41-.04,.44,0,.89,0,1.33h8.46c0-.18,0-.33,0-.48,0-.47,0-.94,0-1.41,.02-.96,.61-1.48,1.41-1.84h.94c1.09,.44,1.52,1.26,1.42,2.41-.04,.44,0,.89,0,1.33h8.56c0-.18,0-.33,0-.48,0-.47,0-.94,0-1.41,.02-.96,.61-1.48,1.41-1.84h.94c1.09,.44,1.52,1.26,1.42,2.41-.04,.44,0,.89,0,1.35,.89,0,1.7-.02,2.52,0,3.06,.1,5.3,1.53,6.68,4.24,.37,.72,.52,1.55,.77,2.33v1.41Z"/><path class="d" d="M48.14,23.51c-.28,.74-.46,1.54-.86,2.21-1.06,1.74-2.67,2.64-4.72,2.68-1.22,.02-2.44,0-3.67,0-1.13,0-1.95-.81-1.94-1.9,0-1.06,.83-1.85,1.94-1.86,.91,0,1.82,0,2.84,0-.32-.37-.56-.7-.84-.99-2.17-2.2-4.77-3.53-7.87-3.72-5.15-.32-9.04,1.82-11.68,6.2-2.38,3.96-2.01,9.45,.76,13.16,1.94,2.6,4.48,4.24,7.66,4.86,2.77,.54,5.41,.14,7.93-1.12,.33-.17,.68-.35,1.04-.41,.97-.15,1.79,.37,2.08,1.28,.28,.86-.07,1.77-.92,2.24-1.36,.76-2.8,1.31-4.32,1.63-4.44,.94-8.6,.2-12.38-2.3-3.57-2.36-5.88-5.68-6.81-9.87-.9-4.05-.31-7.9,1.77-11.5,2.08-3.59,5.11-6.11,9.08-7.28,6.07-1.79,11.46-.44,16.09,3.89,.35,.33,.66,.69,1.06,1.12,0-.93,.03-1.77,0-2.61-.06-1.1,.6-1.88,1.51-2.09,.93-.21,1.75,.29,2.2,1.32,.01,.02,.05,.04,.07,.06v4.98Z"/><path class="d" d="M48.14,33.38c-.04,.09-.09,.19-.13,.28-.35,.88-1.25,1.38-2.15,1.2-.88-.17-1.53-.98-1.51-1.88,.01-.89,.66-1.67,1.51-1.84,.9-.18,1.79,.33,2.14,1.2,.04,.1,.09,.19,.13,.28v.75Z"/><path class="d" d="M33.94,29.28c0,.92,0,1.85,0,2.77,0,.59-.19,1.08-.63,1.46-1.03,.89-2.07,1.78-3.13,2.63-.8,.64-1.91,.48-2.57-.28-.64-.74-.6-1.86,.13-2.55,.65-.61,1.34-1.18,2.04-1.73,.3-.24,.42-.48,.41-.87-.02-1.39-.01-2.79,0-4.18,0-1.15,.79-1.97,1.87-1.97,1.09,0,1.88,.82,1.89,1.96,0,.92,0,1.85,0,2.77Z"/><path class="d" d="M43.87,38.11c1.01,0,1.89,.87,1.9,1.89,.01,1-.87,1.9-1.88,1.9-1.04,0-1.93-.88-1.92-1.91,.01-1.02,.88-1.88,1.9-1.88Z"/></g></g></g></svg>