<?xml version="1.0" encoding="UTF-8"?><svg xmlns="http://www.w3.org/2000/svg" viewBox="0 0 48.31 56.34"><defs><style>.d{fill:#9d9d9c;}</style></defs><g id="a"/><g id="b"><g id="c"><g><path class="d" d="M30.77,0c.51,.41,1.04,.79,1.51,1.24,5.06,4.78,10.1,9.57,15.16,14.34,.59,.55,.86,1.16,.86,1.95-.01,10.98,0,21.97-.01,32.95,0,3.01-1.97,5.25-5.08,5.8-.36,.06-.73,.06-1.1,.06-11.98,0-23.96,0-35.94,0-3.59,0-6.18-2.44-6.18-5.85C0,35.61,0,20.74,0,5.87c0-.49,.03-1,.16-1.47C.81,2.08,2.35,.63,4.84,.1,4.93,.08,5.01,.03,5.1,0,13.66,0,22.21,0,30.77,0Zm-2.44,3.52h-.68c-7.08,0-14.17,0-21.25,0-1.81,0-2.65,.8-2.65,2.53,0,14.75,0,29.49,0,44.24,0,1.73,.84,2.53,2.65,2.53,11.83,0,23.65,0,35.48,0,1.82,0,2.66-.8,2.66-2.52,0-10.25,0-20.5,0-30.76v-.62h-.77c-4.43,0-8.87,0-13.3,0-1.4,0-2.14-.71-2.14-2.04,0-4.24,0-8.47,0-12.71v-.65Zm3.75,2.64V15.31h9.65l-9.65-9.15Z"/><path class="d" d="M24.15,43.03c-3.75,0-7.51,0-11.26,0-1.2,0-2.07-.76-2.04-1.79,.02-1.03,.85-1.73,2.04-1.73,7.55,0,15.09,0,22.64,0,1.01,0,1.75,.6,1.89,1.51,.14,.85-.38,1.65-1.27,1.92-.23,.07-.49,.08-.74,.08-3.75,0-7.51,0-11.26,0Z"/><path class="d" d="M24.15,27.49c3.73,0,7.47,0,11.2,0,1.16,0,1.89,.53,2.06,1.46,.19,1.01-.58,1.97-1.65,2.07-.12,.01-.23,0-.35,0-7.51,0-15.01,0-22.52,0-.81,0-1.44-.3-1.82-.96-.35-.61-.3-1.24,.12-1.82,.39-.55,.96-.77,1.64-.76,1.68,0,3.37,0,5.05,0,2.09,0,4.18,0,6.27,0Z"/></g></g></g></svg>