<?xml version="1.0" encoding="UTF-8"?><svg xmlns="http://www.w3.org/2000/svg" viewBox="0 0 48.73 115.82"><defs><style>.d{fill:#fff;}.e{fill:#c74428;}.f{fill:#7a3725;}.g{fill:#00c1ae;}.h{fill:#04554e;}.i{fill:#e5ae00;}.j{fill:#e2fafc;}.k{fill:#351107;}.l{fill:#008d84;}.m{fill:#912917;}</style></defs><g id="a"/><g id="b"><g id="c"><g><g><rect class="l" x=".49" width="48.24" height="115.82"/><g><rect class="g" x="5.68" y="4.64" width="38.33" height="63.84"/><polygon class="h" points="5.68 68.48 5.68 4.64 44.01 4.64 42.98 5.76 7.31 67.36 5.68 68.48"/><rect class="j" x="7.31" y="5.76" width="35.67" height="61.6"/><polygon class="d" points="30.93 5.76 7.31 5.76 7.31 29.38 30.93 5.76"/><path class="d" d="M42.98,20.03V11.56L7.31,47.22v8.48c11.89-11.89,23.78-23.78,35.67-35.67Z"/><polygon class="d" points="42.98 50.43 42.98 37.88 13.49 67.36 26.05 67.36 42.98 50.43"/></g><g><rect class="g" x="5.65" y="73.88" width="38.36" height="36.81"/><polygon class="h" points="5.65 110.69 5.65 73.88 44.01 73.88 42.98 74.93 7.28 109.65 5.65 110.69"/><rect class="g" x="7.28" y="74.93" width="35.7" height="34.72"/><polygon class="h" points="42.98 109.65 7.28 109.65 8.65 108.05 41.6 76.52 42.98 74.93 42.98 109.65"/><rect class="l" x="8.65" y="76.52" width="32.95" height="31.53"/></g></g><path class="i" d="M.6,16.19c0,.17-.14,.3-.3,.3H.3c-.17,0-.3-.14-.3-.3V7.96c0-.17,.14-.3,.3-.3H.3c.17,0,.3,.14,.3,.3v8.23Z"/><path class="i" d="M.6,107.67c0,.17-.14,.3-.3,.3H.3c-.17,0-.3-.14-.3-.3v-8.23c0-.17,.14-.3,.3-.3H.3c.17,0,.3,.14,.3,.3v8.23Z"/></g><path class="f" d="M47.76,80.13c0,.69-.56,1.25-1.25,1.25h0c-.69,0-1.25-.56-1.25-1.25v-12.83c0-.69,.56-1.25,1.25-1.25h0c.69,0,1.25,.56,1.25,1.25v12.83Z"/><g><path class="e" d="M45.35,70.3c0-.62,.5-1.13,1.13-1.13s1.13,.51,1.13,1.13c0,.62-.5,1.13-1.13,1.13s-1.13-.51-1.13-1.13Z"/><path class="m" d="M47.31,70.17c0,.26-1.75,1.08-3.53,.47-2.2-.75-3.53-.21-3.53-.47s1.37-1.11,3.53-.47c1.82,.54,3.53,.21,3.53,.47Z"/></g><circle class="k" cx="46.48" cy="78.04" r=".66"/><path class="k" d="M46.74,79.72c0,.14-.11,.25-.25,.25h0c-.14,0-.25-.11-.25-.25v-1.46c0-.14,.11-.25,.25-.25h0c.14,0,.25,.11,.25,.25v1.46Z"/><g><polygon class="g" points="12.8 5.67 13.84 4.64 17.22 4.64 17.22 68.48 12.8 68.48 12.8 5.67"/><polygon class="h" points="17.22 4.64 17.22 67.39 16.27 68.6 13.83 67.36 16.27 4.62 17.22 4.64"/><rect class="l" x="13.83" y="3.41" width="2.43" height="66.28"/></g><g><polygon class="g" points="32.29 5.75 33.32 4.64 36.71 5.67 36.71 68.48 32.29 68.48 32.29 5.75"/><polygon class="h" points="36.71 5.67 36.71 67.39 35.75 68.6 35.75 4.54 36.71 5.67"/><rect class="l" x="33.32" y="3.41" width="2.43" height="66.28"/></g><g><polygon class="g" points="42.97 11.25 36.71 11.25 35.72 12.37 33.36 12.37 32.28 11.25 17.3 11.25 16.3 12.28 13.84 12.28 12.83 11.25 7.27 11.25 5.64 12.28 7.2 15.67 11.9 15.67 15.17 13.05 18.39 15.67 32.28 15.67 34.74 12.91 36.71 15.67 44.01 15.67 44.01 12.28 42.97 11.25"/><polygon class="h" points="5.7 14.79 7.14 15.67 12.75 15.67 13.79 14.75 16.26 14.75 17.22 15.67 32.28 15.67 33.27 14.73 35.77 14.73 36.71 15.67 44.01 15.67 44.02 14.71 5.7 14.79"/><rect class="l" x="5.43" y="12.25" width="39.81" height="2.54"/></g><g><polygon class="g" points="42.97 57.23 36.71 57.23 35.72 58.35 33.36 58.35 32.28 57.23 17.3 57.23 16.3 58.26 13.84 58.26 12.83 57.23 7.27 57.23 5.64 58.26 7.2 61.65 11.9 61.65 15.17 59.04 18.39 61.65 32.28 61.65 34.74 58.89 36.71 61.65 44.01 61.65 44.01 58.26 42.97 57.23"/><polygon class="h" points="5.7 60.77 7.14 61.65 12.75 61.65 13.79 60.73 16.26 60.73 17.22 61.65 32.28 61.65 33.27 60.71 35.77 60.71 36.71 61.65 44.01 61.65 44.02 60.69 5.7 60.77"/><rect class="l" x="5.43" y="58.23" width="39.81" height="2.54"/></g></g></g></svg>