<?xml version="1.0" encoding="UTF-8"?><svg xmlns="http://www.w3.org/2000/svg" viewBox="0 0 293.89 383.38"><defs><style>.d{fill:#fff;}</style></defs><g id="a"/><g id="b"><g id="c"><path class="d" d="M72.81,383.38c-.77-.34-1.54-.7-2.32-1.01-7.21-2.82-11.75-7.89-12.73-15.68-1.02-8.1,2.2-14.33,8.94-18.81,.62-.41,1.25-.79,2.55-1.61-4.69-4.55-9.14-8.97-13.75-13.22-.68-.63-2.07-.66-3.14-.68-4.49-.07-8.99,.05-13.48-.05-8.08-.19-13.21-5.45-13.3-13.53-.04-3.84,0-7.68,0-11.75-3.28-.21-6.25-.24-9.17-.63-9.25-1.25-16.01-8.77-16.31-18.11-.14-4.36-.1-8.73-.04-13.1,.16-11.32,7.91-19.2,19.26-19.63,1.96-.07,3.92-.01,6.26-.01v-4.84c0-60.89,.07-121.78-.07-182.67-.02-8.94,2.84-16.16,9.21-22.39,12.32-12.03,24.48-24.23,36.54-36.52C77.39,2.89,84.54-.03,93.32,0c35.82,.14,71.63,.13,107.45,0,8.64-.03,15.71,2.86,21.75,9.01,11.01,11.22,22.01,22.47,33.39,33.31,7.96,7.59,13.89,15.74,12.15,28.06,2.59,0,4.78-.04,6.96,0,10.42,.24,18.47,8.11,18.78,18.48,.14,4.61,.13,9.23,0,13.85-.29,10.58-8.34,18.44-18.98,18.66-1.98,.04-3.96,0-6.51,0v4.95c0,63.51,0,127.02,0,190.53,0,10.81-4.73,16.16-15.5,15.27-10.1-.84-17.87,1.79-23.78,10.05-1.06,1.48-2.75,2.52-4.36,3.95,1.01,.71,1.56,1.14,2.15,1.52,6.97,4.45,10.29,10.78,9.28,19.01-.98,7.94-5.7,13.04-13.08,15.82-.67,.25-1.3,.6-1.95,.9H72.81Zm182.73-64c0-1.42,0-2.41,0-3.4,0-83.09-.01-166.18,.04-249.27,0-4.56-1.59-8.15-4.79-11.32-12.58-12.48-25.12-24.99-37.58-37.59-3.48-3.52-7.43-5.05-12.37-5.03-35.94,.09-71.87,.09-107.81,0-5.1-.01-9.07,1.7-12.63,5.31-12.26,12.44-24.62,24.79-37.06,37.05-3.53,3.48-5.07,7.38-5.06,12.33,.07,82.59,.05,165.18,.05,247.77v4.03h12.76v-4.39c0-18.96,.37-37.94-.13-56.89-.31-11.88,8.07-22.45,21.65-21.51,3.41,.24,6.85,.04,10.28,.04,.11-1.29,.21-1.9,.21-2.52,0-44.29,.03-88.58-.07-132.87,0-1.51-.91-3.34-1.97-4.48-4-4.29-8.29-8.29-12.37-12.51-7.88-8.16-7.99-19.38-.1-27.49,8.27-8.49,16.73-16.79,25.12-25.17,4-3.99,8.84-5.91,14.48-5.9,25.83,0,51.66,0,77.49,0,5.64,0,10.5,1.9,14.49,5.89,8.39,8.37,16.86,16.66,25.11,25.17,7.9,8.15,7.79,19.33-.08,27.49-3.9,4.04-7.84,8.04-11.94,11.88-1.9,1.78-2.55,3.66-2.54,6.23,.07,43.29,.05,86.58,.05,129.88,0,1.33,0,2.66,0,4.39,4.07,0,7.66-.01,11.24,0,12.95,.06,20.75,7.82,20.76,20.71,.02,19.34,0,38.68,0,58.01,0,1.33,0,2.65,0,4.15h12.76Zm-25.51-.01c0-1.43,0-2.42,0-3.41,0-19.45,0-38.9,0-58.36,0-6.21-2.1-8.31-8.29-8.31-49.89,0-99.77,0-149.66,0-6.15,0-8.22,2.12-8.22,8.38-.01,19.33,0,38.66,0,57.98,0,1.2,.13,2.4,.2,3.72H230.03ZM95.89,146.71c0,14.59-.03,29.19,.01,43.78,.02,8.9,5.05,13.96,13.88,13.97,24.7,.02,49.41,.02,74.11,0,9.09,0,14.09-5,14.1-14.14,.03-28.82,.02-57.63,0-86.45,0-9.4-4.89-14.37-14.26-14.39-24.58-.05-49.16-.05-73.73,0-9.14,.02-14.07,5.05-14.09,14.17-.03,14.35,0,28.69,0,43.04Zm109.27-60.28c3.77-3.89,7.28-7.43,10.71-11.04,3.28-3.44,3.33-6.75-.03-10.16-8.05-8.17-16.11-16.35-24.4-24.28-1.53-1.47-4.17-2.49-6.3-2.51-25.45-.17-50.89-.15-76.34-.03-1.86,0-4.22,.56-5.48,1.77-8.8,8.48-17.43,17.14-25.98,25.87-2.39,2.44-2.58,5.65-.29,8.15,3.76,4.1,7.94,7.81,12.04,11.78,6.03-7.15,13.96-9.41,23.03-9.35,23.2,.15,46.4,.15,69.6,0,9.07-.06,17.01,2.15,23.43,9.81Zm15.65,246.28H73.09c4.02,3.92,7.32,7.33,10.87,10.46,1.16,1.03,2.96,1.76,4.51,1.84,4.6,.25,9.23,0,13.85,.15,3.6,.11,6.21,2.81,6.28,6.15,.07,3.13-2.34,5.92-5.66,6.44-1.1,.17-2.24,.11-3.36,.11-7.61,.01-15.22-.06-22.84,.05-3.73,.05-6.21,2.55-6.36,6-.16,3.63,2.28,6.31,6.11,6.68,.74,.07,1.5,.04,2.24,.04,45.55,0,91.09,0,136.64,0,.87,0,1.76,.05,2.62-.09,3.33-.52,5.58-3.22,5.5-6.51-.08-3.35-2.38-5.79-5.86-6.11-1.11-.1-2.24-.05-3.37-.05-25.83,0-51.66,0-77.49-.02-1.6,0-3.28-.06-4.78-.54-2.99-.96-4.37-3.33-4.12-6.37,.27-3.21,2.17-5.25,5.44-5.73,1.22-.18,2.49-.1,3.74-.1,22.59,0,45.17,.02,67.76-.05,1.49,0,3.36-.3,4.4-1.21,3.82-3.35,7.37-7.02,11.59-11.13Zm-124.74-96.47h101.75v-22.34c-7.28,4.2-14.96,3.31-22.51,3.32-18.32,.03-36.65,.07-54.97-.02-8.14-.04-16.46,1.19-24.27-3.29v22.32Zm-70.67,32.35c-2.61,0-5.1-.28-7.5,.07-3.05,.45-4.9,2.54-5.01,5.65-.16,4.61-.18,9.23,.02,13.83,.13,3.09,2.04,5.15,5.11,5.54,2.4,.31,4.88,.06,7.37,.06v-25.15ZM268.55,83.14v25.5c1.72,0,3.2,.01,4.68,0,5.55-.05,7.77-2.18,7.83-7.62,.04-3.62,.06-7.24-.01-10.85-.09-4.58-2.39-6.88-6.9-7.02-1.74-.05-3.48,0-5.6,0Z"/><path class="d" d="M108.48,262.04c6.36,0,12.72-.07,19.07,.02,7.36,.1,12.59,4.96,12.87,12.28,.25,6.6,.23,13.21,.02,19.81-.23,7.07-4.89,12.24-11.93,12.43-13.2,.35-26.43,.35-39.63,.03-7.31-.18-12.11-5.65-12.24-12.99-.11-6.23-.13-12.47,0-18.7,.16-7.59,5.51-12.78,13.14-12.87,6.23-.07,12.47-.01,18.7-.01Zm-18.91,31.6h37.94v-18.85c-11.51,0-22.82,0-34.13,0-1.21,0-2.42,.11-3.81,.17v18.67Z"/><path class="d" d="M191.67,274.61c.1,3.48-2.78,6.41-6.32,6.44-3.48,.03-6.19-2.52-6.34-5.96-.16-3.61,2.49-6.53,6.04-6.67,3.48-.13,6.52,2.7,6.62,6.19Z"/><path class="d" d="M217.22,274.91c-.09,3.52-3.04,6.25-6.62,6.13-3.61-.12-6.23-2.97-6.06-6.61,.16-3.37,2.99-6.06,6.35-6.03,3.46,.03,6.42,3.07,6.33,6.5Z"/><path class="d" d="M185.43,306.68c-3.5,.09-6.4-2.75-6.43-6.31-.03-3.49,2.49-6.17,5.96-6.32,3.58-.16,6.56,2.52,6.7,6.04,.14,3.42-2.77,6.5-6.23,6.59Z"/><path class="d" d="M210.98,294.04c3.54,.07,6.39,3.04,6.25,6.52-.14,3.32-3.01,6.1-6.33,6.13-3.51,.04-6.37-2.85-6.36-6.4,.02-3.61,2.81-6.32,6.44-6.25Z"/><path class="d" d="M159.82,281.05c-3.62,.05-6.38-2.67-6.38-6.29,0-3.43,2.62-6.19,6-6.34,3.5-.16,6.51,2.64,6.62,6.15,.11,3.53-2.68,6.42-6.25,6.48Z"/><path class="d" d="M153.44,300.47c-.07-3.6,2.65-6.4,6.24-6.42,3.58-.01,6.42,2.8,6.38,6.33-.04,3.36-2.76,6.16-6.11,6.3-3.5,.14-6.44-2.65-6.51-6.21Z"/><path class="d" d="M147.11,185.26c-21.15,.13-38.36-16.94-38.43-38.11-.07-21.18,16.98-38.41,38.1-38.49,21.14-.08,38.34,17.01,38.42,38.16,.08,21.24-16.83,38.31-38.09,38.44Zm-.29-12.8c14.17,.06,25.54-11.15,25.62-25.26,.08-14.24-11.41-25.83-25.57-25.79-14.01,.04-25.43,11.51-25.43,25.55,0,14.15,11.24,25.44,25.38,25.5Z"/></g></g></svg>