<?xml version="1.0" encoding="UTF-8"?><svg xmlns="http://www.w3.org/2000/svg" viewBox="0 0 51.19 51.18"><defs><style>.d{fill:#9d9d9c;}</style></defs><g id="a"/><g id="b"><g id="c"><g><path class="d" d="M31.72,51.18c-1.61-.42-2.34-1.72-3.01-3.05-.37-.73-.76-1.05-1.67-.93-1.11,.15-2.26,.04-3.38-.02-.41-.02-.66,.03-.84,.41-.21,.43-.51,.81-.72,1.24-.55,1.14-1.37,1.96-2.59,2.35h-1.36c-1.57-.66-3.15-1.3-4.71-1.97-1.68-.73-2.4-2.21-1.96-3.99,.17-.71,.39-1.41,.51-2.12,.04-.25-.08-.62-.26-.81-.91-.97-1.85-1.91-2.82-2.82-.2-.19-.61-.29-.89-.24-.74,.12-1.46,.36-2.19,.53-1.61,.37-3.11-.35-3.78-1.87-.63-1.42-1.22-2.86-1.79-4.31-.61-1.55-.08-3.11,1.32-4,.68-.43,1.4-.8,2.06-1.24,.18-.12,.34-.42,.34-.64,.03-1.38,.03-2.76,0-4.14,0-.24-.17-.56-.37-.7-.66-.45-1.39-.81-2.06-1.25-1.34-.86-1.89-2.4-1.33-3.88,.58-1.52,1.21-3.03,1.88-4.52,.67-1.47,2.18-2.15,3.76-1.77,.73,.18,1.47,.33,2.19,.57,.41,.14,.62,0,.9-.28,.9-.94,1.82-1.88,2.77-2.77,.32-.3,.41-.54,.28-.97-.22-.69-.38-1.41-.55-2.11-.4-1.65,.32-3.16,1.88-3.84,1.42-.63,2.86-1.22,4.31-1.78,1.55-.6,3.11-.06,4,1.35,.4,.64,.79,1.28,1.15,1.95,.19,.35,.4,.48,.82,.46,1.33-.05,2.66-.05,3.99,0,.43,.01,.63-.12,.82-.46,.37-.68,.77-1.36,1.19-2.01,.84-1.31,2.38-1.87,3.81-1.33,1.55,.59,3.08,1.22,4.59,1.9,1.44,.65,2.12,2.15,1.76,3.69-.18,.76-.42,1.5-.55,2.27-.05,.26,.06,.63,.24,.82,.93,.99,1.89,1.94,2.87,2.88,.17,.16,.52,.27,.75,.22,.74-.13,1.46-.36,2.19-.54,1.69-.41,3.22,.31,3.9,1.89,.61,1.4,1.19,2.82,1.75,4.25,.64,1.62,.09,3.18-1.41,4.09-.64,.39-1.32,.73-1.93,1.17-.21,.15-.36,.5-.37,.76-.04,1.33-.04,2.66,0,3.99,0,.26,.18,.61,.39,.75,.66,.46,1.38,.81,2.06,1.25,1.31,.84,1.88,2.37,1.33,3.81-.58,1.55-1.23,3.08-1.91,4.59-.65,1.44-2.14,2.12-3.69,1.76-.71-.16-1.42-.31-2.11-.54-.48-.16-.78-.08-1.09,.32-.41,.54-.9,1.02-1.37,1.5-.56,.57-1.44,1.03-1.62,1.69-.19,.67,.31,1.53,.5,2.31,.5,2-.23,3.44-2.12,4.24-1.5,.63-2.99,1.27-4.49,1.9h-1.36ZM5.15,36.36c.89-.23,1.71-.44,2.53-.65,1.43-.35,2.59,.03,3.59,1.13,.97,1.08,2.01,2.11,3.08,3.08,1.1,1,1.48,2.16,1.11,3.59-.21,.8-.41,1.6-.64,2.51,1.21,.5,2.42,1.02,3.65,1.5,.13,.05,.43-.16,.54-.33,.41-.63,.76-1.3,1.16-1.94,.76-1.2,1.86-1.65,3.27-1.59,1.43,.07,2.86,.07,4.29,0,1.41-.07,2.51,.38,3.27,1.58,.42,.66,.77,1.35,1.2,2,.1,.15,.43,.3,.57,.24,1.19-.46,2.36-.96,3.58-1.47-.22-.87-.44-1.69-.64-2.51-.36-1.42,.02-2.59,1.12-3.59,1.06-.96,2.08-1.97,3.03-3.03,1.03-1.15,2.23-1.56,3.72-1.16,.78,.21,1.56,.4,2.44,.62l1.63-3.92c-.72-.42-1.4-.84-2.09-1.23-1.48-.84-2.04-2.07-1.87-3.77,.13-1.27,.09-2.56-.02-3.84-.12-1.54,.37-2.7,1.7-3.5,.62-.38,1.27-.72,1.87-1.12,.15-.1,.3-.43,.24-.57-.46-1.19-.96-2.36-1.47-3.58-.87,.22-1.69,.43-2.51,.64-1.43,.37-2.59-.01-3.6-1.11-.98-1.07-2.01-2.11-3.08-3.09-1.1-1-1.48-2.17-1.13-3.59,.2-.82,.42-1.64,.65-2.53l-3.93-1.63c-.4,.68-.81,1.33-1.18,2-.81,1.49-2.01,2.11-3.73,1.96-1.34-.12-2.71-.07-4.06,.01-1.48,.09-2.6-.42-3.36-1.68-.44-.73-.87-1.47-1.35-2.28l-3.93,1.62c.22,.88,.44,1.72,.65,2.57,.35,1.4-.03,2.54-1.1,3.53-1.09,1-2.14,2.05-3.14,3.14-.96,1.04-2.09,1.44-3.46,1.12-.85-.2-1.7-.43-2.63-.67l-1.63,3.93c.75,.44,1.45,.87,2.17,1.27,1.37,.78,1.92,1.93,1.81,3.51-.1,1.4-.07,2.81,0,4.21,.08,1.45-.42,2.55-1.66,3.3-.75,.46-1.51,.89-2.32,1.37l1.63,3.93Z"/><path class="d" d="M25.63,37.39c-6.44,.04-11.75-5.21-11.83-11.7-.08-6.46,5.23-11.84,11.72-11.89,6.49-.05,11.79,5.2,11.85,11.74,.06,6.48-5.22,11.81-11.74,11.85Zm8.28-11.57c.21-4.47-3.45-8.36-8.06-8.55-4.51-.19-8.37,3.42-8.58,8.03-.21,4.56,3.43,8.42,8.14,8.63,4.46,.2,8.28-3.44,8.5-8.1Z"/></g></g></g></svg>