<?xml version="1.0" encoding="UTF-8"?><svg xmlns="http://www.w3.org/2000/svg" viewBox="0 0 14.36 27.84"><defs><style>.d{fill:white;}</style></defs><g id="a"/><g id="b"><g id="c"><path class="d" d="M13.05,0H1.31C.59,0,0,.59,0,1.31v.39c0,.72,.59,1.31,1.31,1.31h.47V23.49c0,1.07,.87,1.94,1.94,1.94h2.96v1.91c0,.28,.22,.5,.5,.5s.5-.22,.5-.5v-1.91h2.96c1.07,0,1.94-.87,1.94-1.94V3.01h.47c.72,0,1.31-.59,1.31-1.31v-.39c0-.72-.59-1.31-1.31-1.31Zm-1.47,23.49c0,.52-.42,.94-.94,.94H3.72c-.52,0-.94-.42-.94-.94v-2.19h3.15c.28,0,.5-.22,.5-.5s-.22-.5-.5-.5H2.78v-2.49h3.15c.28,0,.5-.22,.5-.5s-.22-.5-.5-.5H2.78v-2.49h3.15c.28,0,.5-.22,.5-.5s-.22-.5-.5-.5H2.78v-2.49h3.15c.28,0,.5-.22,.5-.5s-.22-.5-.5-.5H2.78v-2.49h3.15c.28,0,.5-.22,.5-.5s-.22-.5-.5-.5H2.78V3.01H11.58V23.49ZM13.36,1.7c0,.17-.14,.31-.31,.31H1.31c-.17,0-.31-.14-.31-.31v-.39c0-.17,.14-.31,.31-.31H13.05c.17,0,.31,.14,.31,.31v.39Z"/></g></g></svg>