<?xml version="1.0" encoding="UTF-8"?><svg xmlns="http://www.w3.org/2000/svg" viewBox="0 0 41.46 54.64"><defs><style>.d{fill:#fff;}</style></defs><g id="a"/><g id="b"><g id="c"><path class="d" d="M41.45,23.74c0-.64-.06-1.29-.16-1.93-.56-3.51-2.09-6.54-4.59-9.08-.61-.62-.89-1.37-.89-2.23,0-.88,.01-1.77,0-2.65,0-.35,.08-.54,.41-.73,.97-.56,1.47-1.44,1.48-2.57,0-.47,0-.94,0-1.41,0-1.89-1.24-3.14-3.12-3.14-4.61,0-9.22,0-13.84,0-4.65,0-9.3,0-13.95,0-1.72,0-3,1.29-3.01,3.01,0,.49,0,.98,0,1.47,0,1.18,.52,2.08,1.53,2.66,.29,.17,.36,.34,.36,.64-.01,.88,0,1.77,0,2.65,0,.93-.32,1.71-.97,2.38C1.55,16.07-.01,19.96,0,24.5c.02,7.03,0,14.05,0,21.08,0,5.12,3.93,9.07,9.03,9.07,7.79,0,15.58,0,23.37,0,.51,0,1.02-.04,1.52-.11,4.18-.59,7.51-4.39,7.52-8.59,.01-7.4,0-14.8,0-22.2ZM5.66,4.01c0-1.99,.14-2.13,2.14-2.13h12.94c4.51,0,9.02,0,13.53,0,1.18,0,1.53,.36,1.53,1.55,0,2.11-.11,2.22-2.23,2.22-8.77,0-17.53,0-26.3,0-1.3,0-1.62-.33-1.62-1.64Zm28.34,48.55c-.55,.13-1.12,.19-1.69,.19-7.71,.01-15.42,.01-23.13,0-4.18,0-7.28-3.11-7.29-7.29,0-6.75,0-13.5,0-20.25v-.52c0-.75,.12-2.07,.12-2.07,.25-2.23,.96-4.28,2.19-6.14,.53-.8,1.13-1.56,1.79-2.25,1.04-1.1,1.61-2.33,1.56-3.86-.03-.92,0-1.84,0-2.8h26.38c0,.88,.04,1.75,0,2.63-.08,1.64,.5,2.97,1.65,4.11,1.15,1.15,2.21,2.78,2.7,4.05,.01,.02,.03,.04,.04,.07,.66,1.48,.89,2.72,.89,2.72h0c.03,.07,.05,.15,.06,.24,.08,1.01,.3,2.02,.31,3.03,.03,7.04,.02,14.09,.01,21.13,0,3.45-2.21,6.22-5.58,7Z"/></g></g></svg>