<?xml version="1.0" encoding="UTF-8"?><svg xmlns="http://www.w3.org/2000/svg" viewBox="0 0 41.45 54.65"><defs><style>.f{fill:#fff;}</style></defs><g id="a"/><g id="b"><g id="c"><g id="d"><g id="e"><path class="f" d="M41.45,23.74c0-.64-.06-1.29-.16-1.93-.56-3.51-2.09-6.54-4.59-9.08-.61-.62-.89-1.37-.89-2.23s0-1.77,0-2.65c0-.35,.08-.54,.41-.73,.97-.56,1.47-1.44,1.48-2.57v-1.41c0-1.89-1.24-3.14-3.12-3.14H6.79c-1.72,0-3,1.29-3.01,3.01v1.47c0,1.18,.52,2.08,1.53,2.66,.29,.17,.36,.34,.36,.64-.01,.88,0,1.77,0,2.65,0,.93-.32,1.71-.97,2.38C1.55,16.07,0,19.96,0,24.5,.02,31.53,0,38.55,0,45.58,0,50.7,3.93,54.65,9.03,54.65h23.37c.51,0,1.02-.04,1.52-.11,4.18-.59,7.51-4.39,7.52-8.59,0-7.4,0-14.8,0-22.2h0ZM5.66,4.01c0-1.99,.14-2.13,2.14-2.13h26.47c1.18,0,1.53,.36,1.53,1.55,0,2.11-.11,2.22-2.23,2.22H7.27c-1.3,0-1.62-.33-1.62-1.64h0Zm28.34,48.55c-.55,.13-1.12,.19-1.69,.19-7.71,0-15.42,0-23.13,0-4.18,0-7.28-3.11-7.29-7.29V24.69c0-.75,.12-2.07,.12-2.07,.25-2.23,.96-4.28,2.19-6.14,.53-.8,1.13-1.56,1.79-2.25,1.04-1.1,1.61-2.33,1.56-3.86-.03-.92,0-1.84,0-2.8h26.38c0,.88,.04,1.75,0,2.63-.08,1.64,.5,2.97,1.65,4.11,1.15,1.15,2.21,2.78,2.7,4.05,0,.02,.03,.04,.04,.07,.66,1.48,.89,2.72,.89,2.72h0c.03,.07,.05,.15,.06,.24,.08,1.01,.3,2.02,.31,3.03,.03,7.04,.02,14.09,0,21.13,0,3.45-2.21,6.22-5.58,7h-.01Z"/></g></g></g></g></svg>