<?xml version="1.0" encoding="UTF-8"?><svg xmlns="http://www.w3.org/2000/svg" viewBox="0 0 383.24 383.25"><defs><style>.d{fill:#4d4d4d;}.e{fill:#333;}.f{fill:gray;}.g{fill:#999;}.h{fill:#ccc;}.i{fill:#b3b3b3;}.j{fill:#1a1a1a;}.k{fill:#666;}</style></defs><g id="a"/><g id="b"><g id="c"><path class="j" d="M196.87,0c5.28,2.36,11.04,4,15.72,7.22,9.29,6.39,13.95,15.87,14.13,27.13,.26,16.46,.25,32.92,.02,49.38-.26,19.21-16.01,34.53-35.12,34.53-19.09,0-34.87-15.36-35.12-34.53-.21-15.96-.11-31.92-.04-47.89,.07-17.29,10.8-30.85,27.55-35.01,.81-.2,1.58-.55,2.37-.84,3.49,0,6.99,0,10.48,0Z"/><path class="d" d="M0,186.39c2.36-5.28,4.01-11.04,7.23-15.72,6.39-9.29,15.87-13.95,27.12-14.13,16.46-.26,32.92-.24,49.38-.03,19.2,.25,34.52,16,34.52,35.11,0,19.11-15.31,34.86-34.52,35.13-16.08,.23-32.17,.14-48.26,.04-17.1-.11-30.91-11.29-34.73-27.91-.16-.69-.5-1.34-.75-2.01,0-3.49,0-6.99,0-10.48Z"/><path class="i" d="M323.8,226.22c-9.84,0-19.81,1.06-29.48-.23-18.27-2.44-30.83-19.27-29.23-37.4,1.58-18,16.56-31.93,34.84-32.11,16.09-.16,32.18-.15,48.26,0,19.51,.18,34.98,15.74,35.05,34.99,.07,19.43-15.43,35.06-35.12,35.31-8.1,.11-16.21,.02-24.32,.02v-.58Z"/><path class="f" d="M226.18,324.32c0,9.96,1.02,20.05-.22,29.85-2.25,17.76-18.87,30.22-36.88,28.99-17.62-1.21-32.2-16-32.53-33.63-.32-16.95-.33-33.93,0-50.88,.37-18.51,16.2-33.55,34.81-33.66,18.84-.11,34.72,14.82,35.34,33.51,.29,8.6,.05,17.21,.05,25.81h-.58Z"/><path class="e" d="M114.4,149.98c-9.13-.13-17.15-3.23-23.65-9.61-11.84-11.62-23.7-23.22-35.17-35.2-13.33-13.93-12.92-35.52,.48-48.93,13.64-13.65,35.15-14.1,49.19-.61,12.05,11.58,23.99,23.3,35.38,35.52,10.34,11.09,12.14,24.31,6.19,38.2-5.56,12.98-18.42,20.89-32.42,20.63Z"/><path class="g" d="M233.3,265.51c.72-12.46,7.56-23.52,21.19-29.32,13.7-5.83,26.88-3.74,37.81,6.58,12.15,11.47,23.94,23.33,35.47,35.42,13.28,13.93,12.76,35.38-.69,48.94-13.32,13.44-35,13.92-48.92,.61-12.08-11.54-23.79-23.48-35.46-35.44-6.56-6.72-9.56-15.05-9.4-26.8Z"/><path class="h" d="M265.76,149.98c-12.05-.56-23.23-7.1-29.31-20.67-6.05-13.51-4.35-26.69,5.7-37.6,11.74-12.74,24.1-24.94,36.72-36.81,13.59-12.78,34.85-11.99,48.08,1.07,13.29,13.12,14.26,34.67,1.43,48.36-11.85,12.64-24.29,24.74-36.74,36.8-6.34,6.14-14.34,8.84-25.88,8.85Z"/><path class="k" d="M117.43,233.29c12.78,.72,23.82,7.58,29.63,21.2,5.78,13.56,3.8,26.68-6.36,37.53-11.58,12.38-23.63,24.35-35.95,36-13.89,13.13-35.25,12.45-48.62-.94-13.46-13.48-13.95-35-.63-48.92,11.55-12.07,23.49-23.78,35.45-35.46,6.72-6.57,15.05-9.54,26.48-9.42Z"/></g></g></svg>