<?xml version="1.0" encoding="UTF-8"?><svg xmlns="http://www.w3.org/2000/svg" viewBox="0 0 39.67 51.58"><defs><style>.d{fill:#9d9d9c;}</style></defs><g id="a"/><g id="b"><g id="c"><g><path class="d" d="M37.42,10.54c-1.24-2.29-2.81-4.2-4.7-5.83-1.98-1.69-4.17-2.92-6.54-3.68-5.03-1.61-9.99-1.36-14.85,.89-3.47,1.61-6.33,4.08-8.44,7.5-.94,1.53-1.72,3.27-2.2,5.04-1,3.64-.91,7.33,.22,10.99,.64,2.09,1.39,4.09,2.57,5.85,.93,1.36,1.92,2.68,2.96,3.94,1.37,1.65,2.82,3.22,4.24,4.83,.05,.07,.1,.16,.14,.27l3.58,3.98c.5,.52,.99,1.06,1.46,1.61,.69,.81,1.37,1.64,2.19,2.62-1.08,0-1.96-.03-2.85,.01-.9,.04-1.47,.66-1.46,1.51,0,.85,.58,1.49,1.48,1.49,3.09,.03,6.17,.02,9.26,0,.3,0,.64-.12,.89-.31,.48-.37,.66-.92,.5-1.57-.16-.62-.51-1.06-1.12-1.08-.97-.04-1.93-.01-2.91-.01l-.07-.21c1-1.17,2-2.36,3.01-3.52,1.8-2.07,3.62-4.12,5.42-6.19,.9-1.03,1.74-2.11,2.68-3.09,1.44-1.5,2.78-3.11,3.77-4.98,.89-1.66,1.71-3.43,2.2-5.28,1.35-5.1,1.13-10.08-1.43-14.78Zm-.91,10.04c-.41,2.2-.74,4.41-1.67,6.47-1.09,2.41-2.48,4.51-4.24,6.33-.48,.49-.91,1.04-1.37,1.56-1.74,2.02-3.45,4.06-5.21,6.05-1.37,1.56-2.79,3.06-4.24,4.64-.75-.83-1.5-1.66-2.25-2.52-1.42-1.6-2.83-3.2-4.24-4.82-.86-.97-1.7-1.96-2.55-2.94-1.05-1.21-2.13-2.4-3.17-3.63-.48-.59-.96-1.2-1.31-1.89-.66-1.28-1.25-2.61-1.81-3.94-1.13-2.67-1.39-5.48-1.1-8.37,.32-3.09,1.53-5.71,3.36-8.03,1.38-1.74,2.99-3.1,4.84-4.15,2.9-1.65,5.99-2.33,9.23-2.16,2.74,.13,5.33,.9,7.74,2.35,1.6,.97,3.03,2.2,4.27,3.73,1.63,2.01,2.84,4.25,3.32,6.91,.26,1.45,.68,2.92,.4,4.41Z"/><path class="d" d="M20.81,11.7c-3.72-.41-7.29,1.54-8.64,5.49-.86,2.49-.35,4.9,1.12,6.92,1.66,2.26,3.92,3.28,6.34,3.31,3.46-.05,6.16-1.65,7.75-5,1.01-2.14,.42-6.02-1.15-7.76-1.52-1.68-3.28-2.72-5.42-2.96Zm.77,12.29c-.55,.21-1.15,.26-1.45,.32-2.18-.03-3.72-.87-4.64-2.68-.99-1.94-.62-4.57,1.74-6.09,2.3-1.48,5.3-.89,6.76,1.54,1.62,2.69,.38,5.8-2.41,6.91Z"/></g></g></g></svg>