<?xml version="1.0" encoding="UTF-8"?><svg xmlns="http://www.w3.org/2000/svg" viewBox="0 0 258.49 320.35"><defs><style>.d{fill:#fff;}.e{fill:#ccc;}.f{fill:#ffb027;}</style></defs><g id="a"/><g id="b"><g id="c"><g><path class="e" d="M132.5,320.14c-2.16,.28-4.35,.28-6.51,0-33.76-4.42-64.77-20.51-87.9-45.72C13.53,247.62,0,212.85,0,176.51V65.66c0-13.03,9.17-24.32,21.95-26.83C54.79,32.38,86.46,20.49,115.45,3.71c8.54-4.95,19.05-4.95,27.59,0,28.98,16.78,60.66,28.67,93.5,35.12,12.78,2.51,21.95,13.8,21.95,26.83v110.85c0,36.35-13.53,71.12-38.09,97.9-23.12,25.22-54.14,41.3-87.9,45.72Z"/><path class="f" d="M130.55,300.09c-.86,.12-1.75,.12-2.61,0-28.47-4.08-54.67-17.88-74.18-39.16-21.15-23.06-32.79-52.99-32.79-84.28V68.14c0-4.32,3.01-8.04,7.23-8.95,33.78-7.33,66.5-19.73,96.61-36.64,2.75-1.55,6.13-1.55,8.88,0,30.11,16.91,62.82,29.31,96.61,36.64,4.22,.91,7.23,4.64,7.23,8.95v108.5c0,31.29-11.65,61.22-32.79,84.28-19.51,21.28-45.72,35.08-74.18,39.16Z"/><path class="d" d="M181.93,140.55h-8.18v-21.63c0-24.16-19.66-43.82-43.82-43.82s-43.82,19.66-43.82,43.82v21.63h-9.56c-5.99,0-10.85,4.86-10.85,10.85v61.19c0,15.92,12.9,28.82,28.82,28.82h69.43c15.92,0,28.82-12.9,28.82-28.82v-61.19c0-5.99-4.86-10.85-10.85-10.85Zm-81.86-21.63c0-16.47,13.4-29.87,29.87-29.87s29.87,13.4,29.87,29.87v21.63h-59.73v-21.63Zm36.13,73.47v20.27c0,3.37-2.73,6.09-6.09,6.09h-1.72c-3.37,0-6.09-2.73-6.09-6.09v-20.27c-5.47-2.77-9.09-8.67-8.42-15.36,.71-7.15,6.47-12.99,13.61-13.78,9.33-1.03,17.22,6.24,17.22,15.36,0,6.03-3.46,11.24-8.5,13.79Z"/></g></g></g></svg>