<?xml version="1.0" encoding="UTF-8"?><svg xmlns="http://www.w3.org/2000/svg" viewBox="0 0 36.75 55.02"><defs><style>.d{fill:#9d9d9c;}</style></defs><g id="a"/><g id="b"><g id="c"><g><path class="d" d="M6.38,11.09c-.08-1.51,.18-2.8,1.37-3.81,1.21-1.03,2.64-.75,4.07-.81-.02-1.9,.75-3.48,2.08-4.74C15.38,.34,17.2-.15,19.21,.04c2.25,.21,5.6,2.24,5.75,6.45,.58,0,1.16,0,1.74,0,1.29-.02,2.25,.57,3.01,1.58,.5,.67,.62,1.42,.66,2.2,.02,.26,0,.52,0,.83,1.25,0,2.48,0,3.71,0,1.23,0,2.23,.7,2.58,1.81,.05,.15,.07,.31,.07,.47,0,13.14,0,26.28,.02,39.42,0,1.1-1.32,2.23-2.25,2.23-10.73-.02-21.47-.02-32.2,0-1.05,0-2.3-1.21-2.3-2.28C.02,39.7,.03,26.66,0,13.61c0-1.07,.75-2.23,1.97-2.37,1.1-.13,2.22-.11,3.33-.16,.34-.01,.68,0,1.08,0Zm-3.24,3V51.98h30.49V14.1h-3.24v2.59H6.35v-2.59H3.14ZM15.37,6.45h6.04c.1-1.69-1.39-2.95-3.4-2.92-1.29,.02-2.88,1.67-2.64,2.92Z"/><path class="d" d="M25.57,21.74c1.24,0,2.47,0,3.71,0,.84,0,1.57,.28,2.06,1,.45,.65,.45,1.39,.16,2.08-.27,.62-.77,1.11-1.48,1.17-1.15,.09-2.3,.1-3.45,.11-1.53,.02-3.06,.01-4.59,0-.75,0-1.45-.16-1.96-.8-.66-.83-.66-1.91-.03-2.71,.5-.63,1.2-.83,1.97-.84,1.2-.01,2.41,0,3.61,0Z"/><path class="d" d="M25.63,45.44c-1.27,0-2.54,0-3.81,0-1,0-1.75-.45-2.15-1.36-.53-1.22,.26-2.72,1.6-2.89,.83-.1,1.68-.1,2.52-.11,1.81-.01,3.61-.01,5.42,0,.86,0,1.64,.26,2.12,1.02,.63,1.02,.51,2.62-1.18,3.22-.22,.08-.47,.11-.71,.11-1.27,.01-2.54,0-3.81,0Z"/><path class="d" d="M25.6,35.86c-1.33,0-2.67,0-4,0-1.36,0-2.1-1.04-2.1-2.14,0-1.15,.86-2.07,2.09-2.1,2.67-.06,5.34-.05,8.01,0,1.14,.02,2.12,.82,2.07,2.24-.04,1.14-.93,2-2.11,2-1.32,0-2.64,0-3.95,0Z"/><path class="d" d="M17.52,31.16c-.19,.35-.3,.71-.53,.95-1.64,1.68-3.28,3.35-4.97,4.98-.76,.74-1.48,.8-2.33,.2-1-.72-1.96-1.5-2.93-2.28-.48-.39-.55-.95-.18-1.45,.31-.41,.65-.8,1.01-1.16,.38-.36,1.09-.32,1.56,.05,.37,.28,.74,.56,1.07,.88,.24,.23,.39,.23,.63-.01,1.1-1.13,2.22-2.25,3.35-3.35,.34-.33,.67-.68,1.21-.73,.78-.06,1.22,.44,1.65,.94,.21,.25,.29,.6,.46,.98Z"/><path class="d" d="M10.6,43.15c1.35-1.36,2.66-2.67,3.97-3.98,.6-.6,1.36-.58,1.96,.03,.11,.12,.22,.25,.35,.34,.76,.57,.66,1.62,.04,2.24-1.59,1.58-3.17,3.18-4.77,4.75-.77,.76-1.83,.81-2.66,.14-.88-.72-1.79-1.4-2.69-2.11-.54-.42-.57-1.14-.1-1.63,.19-.2,.35-.42,.53-.63,.9-1.05,1.4-.69,2.22-.1,.39,.28,.75,.61,1.14,.94Z"/><path class="d" d="M10.62,23.81c1.05-1.06,2.08-2.1,3.11-3.14,.33-.33,.63-.68,.99-.97,.35-.28,.75-.38,1.21-.22,.8,.27,1.53,1.27,1.44,2.1-.02,.2-.14,.44-.28,.58-1.73,1.74-3.47,3.47-5.21,5.2-.57,.56-1.52,.62-2.28,.06-.98-.73-1.92-1.51-2.85-2.29-.53-.45-.53-.98-.06-1.51,.19-.22,.38-.44,.56-.66,.84-1,1.33-.69,2.07-.19,.44,.3,.83,.66,1.3,1.05Z"/></g></g></g></svg>