<?xml version="1.0" encoding="UTF-8"?><svg xmlns="http://www.w3.org/2000/svg" viewBox="0 0 44.33 43.63"><defs><style>.d{fill:#9d9d9c;}</style></defs><g id="a"/><g id="b"><g id="c"><g><path class="d" d="M32.38,10.8c0,6-4.82,10.78-10.85,10.78-5.95,0-10.74-4.86-10.73-10.85C10.8,4.76,15.66-.01,21.7,0c5.89,.01,10.68,4.86,10.68,10.8Zm-3.09-.02c0-4.22-3.46-7.69-7.68-7.7-4.23-.01-7.73,3.48-7.72,7.71,0,4.21,3.47,7.69,7.69,7.7,4.23,.01,7.72-3.47,7.72-7.71Z"/><path class="d" d="M3,40.08c.35,0,.54,0,.73,0,5.94,0,11.88,0,17.82,0,.73,0,1.27,.39,1.5,1.05,.22,.62,.02,1.32-.54,1.71-.25,.17-.58,.31-.88,.31-6.71,.02-13.42,.02-20.14,.01-.76,0-1.48-.62-1.48-1.37,0-2.19-.14-4.39,.36-6.56,1.21-5.21,5.86-9.58,11.15-10.36,.93-.14,1.88-.18,2.83-.19,2.28-.03,4.56-.01,6.84,0,.76,0,1.42,.56,1.53,1.27,.12,.79-.34,1.53-1.1,1.75-.18,.05-.38,.06-.57,.06-2.33,0-4.66,0-6.98,0-5.32,0-9.63,3.44-10.73,8.64-.25,1.18-.23,2.41-.35,3.7Z"/><path class="d" d="M35.05,25.1c5.03-.02,9.2,4.1,9.28,9.07,.08,4.9-3.77,9.38-9.19,9.45-5.05,.06-9.24-4.1-9.33-9.07-.09-5,3.91-9.42,9.24-9.45Zm.04,15.41c3.39-.02,6.15-2.78,6.15-6.15,0-3.4-2.79-6.15-6.21-6.14-3.38,.01-6.14,2.8-6.13,6.17,.02,3.37,2.81,6.14,6.18,6.12Z"/><path class="d" d="M36.61,36.19c0,.53,0,1.06,0,1.59-.01,.89-.67,1.54-1.55,1.54-.87,0-1.52-.66-1.53-1.56,0-1.04,0-2.08,0-3.12,0-.88,.7-1.57,1.55-1.56,.85,0,1.52,.7,1.53,1.58,0,.51,0,1.02,0,1.54Z"/><path class="d" d="M35.05,32.69c-.86-.01-1.53-.71-1.52-1.58,.01-.84,.7-1.52,1.54-1.52,.87,0,1.56,.72,1.54,1.62-.02,.84-.72,1.5-1.56,1.49Z"/></g></g></g></svg>