<?xml version="1.0" encoding="UTF-8"?><svg xmlns="http://www.w3.org/2000/svg" viewBox="0 0 393.63 123.12"><defs><style>.d{fill:#4d4d4d;}.e{fill:#333;}.f{fill:#666;}</style></defs><g id="a"/><g id="b"><g id="c"><path class="d" d="M87.46,46.51c-5.24-.52-9.66-1.21-15.43-.02-1.98,.56-3.7,1.57-7.19,3.73-4.91,3.06-4.31,4.68-12.73,5.16-8.14,.46-8.67-4.16-14.01-6.08-1.33-.48-2.73,.48-2.73,1.9v50.74c0,1.12,.91,2.03,2.03,2.03h49.87c1.12,0,2.03-.91,2.03-2.03V48.53c0-1.04-.8-1.92-1.84-2.02Zm-40.52,45.72c-2.79,0-5.04-2.26-5.04-5.04s2.26-5.04,5.04-5.04,5.04,2.26,5.04,5.04-2.26,5.04-5.04,5.04Zm18.73-14.52c-3.63,0-6.57-2.94-6.57-6.57s2.94-6.57,6.57-6.57,6.57,2.94,6.57,6.57-2.94,6.57-6.57,6.57Z"/><circle class="d" cx="73.77" cy="25.12" r="5.04"/><circle class="d" cx="54.21" cy="41.17" r="6.57"/><g><path class="f" d="M43.12,120.46c0,1.47-1.19,2.66-2.66,2.66h-10.86c-10.82,0-16.23-5.61-16.23-16.84v-31.41c0-.71-.29-1.4-.8-1.9L.8,61.42c-.51-.5-.8-1.18-.8-1.9v-.28c0-.72,.29-1.4,.8-1.9l11.77-11.47c.51-.5,.8-1.19,.8-1.9V16.84c0-11.23,5.42-16.84,16.24-16.84h10.86c1.47,0,2.66,1.19,2.66,2.66V11.28c0,1.53-1.29,2.75-2.82,2.65h-.1c-1.4-.1-2.49-.14-3.26-.14-5.25,0-7.88,1.9-7.88,5.7v24.04c0,2.58-.25,4.46-.75,5.64s-1.68,2.56-3.53,4.14l-4.95,4.09c-1.28,1.06-1.29,3.01-.02,4.08l4.97,4.19c1.86,1.58,3.06,3.01,3.6,4.28,.45,1.09,.68,2.85,.68,5.3v28.11c0,3.94,2.69,5.91,8.08,5.91,.72,0,1.77-.03,3.12-.1h.07c1.52-.08,2.78,1.13,2.78,2.65v8.65h0Z"/><path class="f" d="M123.88,61.42l-11.78,11.54c-.51,.5-.8,1.18-.8,1.9v31.41c0,11.23-5.43,16.84-16.3,16.84h-10.79c-1.47,0-2.66-1.19-2.66-2.66v-8.68c0-1.5,1.25-2.69,2.74-2.62h.04c1.36,.07,2.4,.1,3.12,.1,5.52,0,8.28-1.97,8.28-5.91v-28.11c0-2.54,.23-4.38,.68-5.54,.45-1.15,1.61-2.5,3.46-4.04l4.97-4.19c1.27-1.07,1.26-3.02-.02-4.08l-4.95-4.09c-1.86-1.54-3.03-2.96-3.53-4.28-.41-1.04-.61-2.87-.61-5.5V19.49c0-3.76-2.69-5.64-8.08-5.64-.77,0-1.86,.03-3.26,.1h-.08c-1.51,.08-2.78-1.13-2.78-2.65V2.66c0-1.47,1.19-2.66,2.66-2.66h10.79c10.87,0,16.3,5.61,16.3,16.84v27.13c0,.72,.29,1.4,.8,1.9l11.77,11.47c.51,.5,.8,1.19,.8,1.9v.28c0,.71-.29,1.4-.8,1.9h.03Z"/></g><g><path class="d" d="M169.78,59.7h-23V18.17c0-1.69-.62-3.2-1.79-4.38-1.17-1.17-2.68-1.79-4.37-1.79s-3.13,.62-4.3,1.79c-1.17,1.17-1.79,2.68-1.79,4.37v47.69c0,1.68,.6,3.18,1.72,4.34,1.15,1.19,2.66,1.82,4.37,1.82h29.16c1.69,0,3.2-.62,4.37-1.79s1.79-2.68,1.79-4.38-.62-3.21-1.79-4.38-2.68-1.79-4.37-1.79v.03Z"/><path class="d" d="M210.14,31.13h0c-3.29-1.94-7.03-2.92-11.13-2.92s-7.85,.98-11.16,2.91c-3.3,1.93-5.95,4.59-7.88,7.91-1.93,3.33-2.91,7.12-2.91,11.26s.89,7.86,2.66,11.15c1.77,3.31,4.24,5.97,7.32,7.91,3.11,1.96,6.67,2.96,10.56,2.96s7.44-.99,10.56-2.96c.37-.23,.73-.48,1.09-.73,.29,.63,.69,1.21,1.2,1.72,1.15,1.15,2.65,1.76,4.34,1.76s3.19-.61,4.34-1.75c1.15-1.15,1.75-2.65,1.75-4.34v-15.71c0-4.14-.98-7.92-2.91-11.26-1.92-3.32-4.56-5.98-7.83-7.91h0Zm-2.48,24.7c-.88,1.62-2.03,2.85-3.55,3.78-1.49,.91-3.16,1.36-5.1,1.36s-3.56-.45-5.08-1.36c-1.54-.93-2.72-2.17-3.61-3.79-.9-1.63-1.34-3.44-1.34-5.52s.44-3.95,1.34-5.59c.9-1.62,2.08-2.86,3.61-3.79,1.52-.92,3.18-1.36,5.08-1.36s3.61,.44,5.1,1.36c1.51,.93,2.67,2.16,3.55,3.78,.89,1.64,1.32,3.48,1.32,5.61s-.43,3.9-1.32,5.54v-.02Z"/><path class="d" d="M260.43,31.17h0c-3.12-1.96-6.67-2.96-10.56-2.96-3.14,0-6.09,.67-8.75,1.99-.82,.4-1.6,.85-2.34,1.35v-13.45c0-1.74-.59-3.25-1.72-4.38-1.13-1.12-2.64-1.72-4.37-1.72s-3.17,.58-4.31,1.69c-1.17,1.13-1.78,2.65-1.78,4.4V50.24c.05,4.12,1.04,7.89,2.94,11.21,1.9,3.33,4.53,6,7.81,7.92,3.29,1.94,7.03,2.92,11.13,2.92s7.91-.98,11.2-2.92c3.27-1.93,5.91-4.59,7.83-7.91,1.93-3.33,2.91-7.12,2.91-11.26s-.89-7.86-2.66-11.15c-1.77-3.31-4.24-5.97-7.32-7.91v.03Zm-20.63,13.5c.87-1.59,2.04-2.82,3.57-3.75,1.52-.92,3.18-1.37,5.08-1.37s3.61,.44,5.1,1.36c1.52,.93,2.7,2.17,3.6,3.77,.9,1.61,1.34,3.42,1.34,5.54s-.44,3.9-1.35,5.56c-.9,1.64-2.07,2.89-3.59,3.82-1.49,.91-3.16,1.36-5.1,1.36s-3.56-.45-5.08-1.36c-1.53-.92-2.69-2.16-3.56-3.8-.89-1.66-1.32-3.49-1.32-5.58s.43-3.95,1.31-5.56h0Z"/><path class="d" d="M308.73,22.09c1.1-1.1,1.68-2.55,1.68-4.2s-.58-3.1-1.68-4.2c-1.1-1.1-2.55-1.68-4.2-1.68h-37.69c-1.65,0-3.1,.58-4.2,1.68s-1.68,2.55-1.68,4.2,.58,3.1,1.68,4.2c1.1,1.1,2.55,1.68,4.2,1.68h12.72v42.09c0,1.69,.62,3.21,1.79,4.37,1.17,1.17,2.68,1.79,4.37,1.79s3.2-.62,4.37-1.79c1.17-1.17,1.79-2.68,1.79-4.37V23.77h12.65c1.65,0,3.1-.58,4.2-1.68Z"/><path class="d" d="M333.35,31.13h0c-3.29-1.94-7.03-2.92-11.13-2.92s-7.85,.98-11.16,2.91c-3.3,1.93-5.95,4.59-7.88,7.91-1.93,3.33-2.91,7.12-2.91,11.26s.89,7.86,2.66,11.15c1.77,3.31,4.24,5.97,7.32,7.91,3.11,1.96,6.67,2.96,10.56,2.96s7.44-.99,10.56-2.96c.37-.23,.73-.48,1.09-.73,.29,.63,.69,1.21,1.2,1.72,1.15,1.15,2.65,1.76,4.34,1.76s3.19-.61,4.34-1.75c1.15-1.15,1.75-2.65,1.75-4.34v-15.71c0-4.14-.98-7.92-2.91-11.26-1.92-3.32-4.56-5.98-7.83-7.91Zm-2.48,24.7c-.88,1.62-2.03,2.85-3.55,3.78-1.49,.91-3.16,1.36-5.1,1.36s-3.56-.45-5.08-1.36c-1.54-.93-2.72-2.17-3.61-3.79-.9-1.63-1.34-3.44-1.34-5.52s.44-3.95,1.34-5.59c.9-1.62,2.08-2.86,3.61-3.79,1.52-.92,3.18-1.36,5.08-1.36s3.61,.44,5.1,1.36c1.51,.93,2.67,2.16,3.55,3.78,.89,1.64,1.32,3.48,1.32,5.61s-.43,3.9-1.32,5.54v-.02Z"/><path class="d" d="M390.96,39.08h0c-1.77-3.31-4.24-5.97-7.32-7.91-3.12-1.96-6.67-2.96-10.56-2.96-3.14,0-6.09,.67-8.75,1.99-.82,.4-1.6,.85-2.34,1.35v-13.45c0-1.74-.59-3.25-1.72-4.38-1.13-1.12-2.64-1.72-4.37-1.72s-3.17,.58-4.31,1.69c-1.17,1.13-1.78,2.65-1.78,4.4V50.24c.05,4.12,1.04,7.89,2.94,11.21,1.9,3.33,4.53,6,7.81,7.92,3.29,1.94,7.03,2.92,11.13,2.92s7.91-.98,11.2-2.92c3.27-1.93,5.91-4.59,7.83-7.91,1.93-3.33,2.91-7.12,2.91-11.26s-.89-7.86-2.66-11.15v.03Zm-27.95,5.59c.87-1.59,2.04-2.82,3.57-3.75,1.52-.92,3.18-1.37,5.08-1.37s3.61,.44,5.1,1.36c1.52,.93,2.7,2.17,3.6,3.77,.9,1.61,1.34,3.42,1.34,5.54s-.44,3.9-1.35,5.56c-.9,1.64-2.07,2.89-3.59,3.82-1.49,.91-3.16,1.36-5.1,1.36s-3.56-.45-5.08-1.36c-1.53-.92-2.69-2.16-3.56-3.8-.89-1.66-1.32-3.49-1.32-5.58s.43-3.95,1.31-5.56h0Z"/></g><g><path class="e" d="M149.46,111.67c-2.1,0-4.01-.49-5.71-1.46-1.7-.97-3.04-2.29-4.03-3.97-.99-1.67-1.5-3.56-1.56-5.67v-19.55c0-.38,.12-.67,.34-.89,.23-.22,.52-.32,.87-.32,.38,0,.67,.11,.89,.32s.32,.51,.32,.89v12.63c.86-1.4,2.07-2.52,3.62-3.36,1.55-.84,3.3-1.25,5.24-1.25,2.16,0,4.09,.49,5.81,1.48,1.71,.98,3.06,2.33,4.05,4.03,.99,1.7,1.48,3.63,1.48,5.79s-.49,4.09-1.48,5.81c-.98,1.71-2.33,3.06-4.05,4.05-1.71,.99-3.65,1.48-5.81,1.48Zm0-2.27c1.7,0,3.22-.4,4.55-1.19,1.34-.8,2.39-1.88,3.18-3.24,.78-1.36,1.17-2.91,1.17-4.63s-.39-3.26-1.17-4.61c-.78-1.35-1.84-2.42-3.18-3.22-1.33-.8-2.85-1.19-4.55-1.19s-3.18,.4-4.53,1.19-2.41,1.87-3.18,3.22c-.77,1.35-1.15,2.89-1.15,4.61s.38,3.27,1.15,4.63c.77,1.36,1.83,2.44,3.18,3.24s2.86,1.19,4.53,1.19Z"/><path class="e" d="M176.98,111.67c-2.16,0-4.09-.49-5.81-1.48-1.71-.98-3.06-2.33-4.05-4.05-.99-1.71-1.48-3.63-1.48-5.77s.49-4.09,1.48-5.81c.98-1.71,2.33-3.06,4.05-4.05,1.71-.99,3.65-1.48,5.81-1.48s4.09,.49,5.79,1.48c1.7,.98,3.04,2.33,4.03,4.05,.98,1.71,1.48,3.65,1.48,5.81l-1.01,1.62c0,1.83-.45,3.48-1.36,4.94-.9,1.46-2.12,2.61-3.66,3.46-1.54,.85-3.29,1.28-5.26,1.28Zm0-2.27c1.7,0,3.22-.4,4.55-1.19,1.34-.8,2.39-1.88,3.16-3.24,.77-1.36,1.15-2.89,1.15-4.59s-.38-3.27-1.15-4.63c-.77-1.36-1.82-2.44-3.16-3.24-1.33-.8-2.85-1.19-4.55-1.19s-3.18,.4-4.53,1.19c-1.35,.8-2.42,1.88-3.2,3.24s-1.17,2.91-1.17,4.63,.39,3.23,1.17,4.59,1.85,2.44,3.2,3.24c1.35,.8,2.86,1.19,4.53,1.19Zm10.12,2.02c-.38,0-.68-.11-.91-.34-.23-.23-.34-.52-.34-.87v-7.41l.77-2.43h1.66v9.83c0,.35-.11,.64-.32,.87s-.5,.34-.85,.34Z"/><path class="e" d="M201.86,111.67c-1.4,0-2.87-.26-4.41-.77-1.54-.51-2.82-1.38-3.84-2.59-.22-.27-.3-.56-.26-.87,.04-.31,.21-.57,.51-.79,.27-.19,.56-.26,.87-.2,.31,.05,.56,.2,.75,.45,.78,.92,1.73,1.56,2.85,1.92,1.12,.36,2.34,.55,3.66,.55,2.27,0,3.87-.41,4.82-1.21,.94-.81,1.42-1.75,1.42-2.83s-.51-1.92-1.52-2.61c-1.01-.69-2.57-1.18-4.67-1.48-2.7-.38-4.69-1.11-5.99-2.19-1.29-1.08-1.94-2.33-1.94-3.76,0-1.35,.34-2.49,1.01-3.42,.67-.93,1.6-1.63,2.77-2.1,1.17-.47,2.52-.71,4.03-.71,1.83,0,3.39,.33,4.65,.99,1.27,.66,2.29,1.54,3.08,2.65,.22,.27,.29,.56,.22,.87-.07,.31-.28,.56-.63,.75-.27,.14-.55,.18-.85,.12-.3-.05-.55-.22-.77-.49-.67-.86-1.49-1.52-2.45-1.96-.96-.45-2.07-.67-3.34-.67-1.7,0-3.02,.36-3.97,1.09-.94,.73-1.42,1.61-1.42,2.63,0,.7,.2,1.32,.59,1.84,.39,.53,1.03,.97,1.92,1.34,.89,.36,2.08,.65,3.56,.87,2.02,.27,3.62,.73,4.79,1.38s2.01,1.4,2.51,2.25,.75,1.76,.75,2.73c0,1.27-.41,2.37-1.21,3.32-.81,.94-1.88,1.67-3.2,2.17-1.32,.5-2.75,.75-4.29,.75Z"/><path class="e" d="M218.01,84.64c-.51,0-.95-.18-1.32-.55s-.55-.82-.55-1.36c0-.62,.2-1.09,.59-1.4,.39-.31,.83-.46,1.31-.46,.46,0,.88,.16,1.28,.46,.39,.31,.59,.78,.59,1.4,0,.54-.18,.99-.55,1.36s-.82,.55-1.36,.55Zm.04,26.79c-.35,0-.64-.11-.87-.34s-.34-.52-.34-.87v-19.71c0-.38,.11-.67,.34-.89,.23-.22,.52-.32,.87-.32,.38,0,.67,.11,.89,.32,.22,.22,.32,.51,.32,.89v19.71c0,.35-.11,.64-.32,.87-.22,.23-.51,.34-.89,.34Z"/><path class="e" d="M237.15,111.67c-2.1,0-3.99-.5-5.64-1.5-1.66-1-2.97-2.35-3.93-4.05-.96-1.7-1.44-3.62-1.44-5.75s.45-4.09,1.34-5.79c.89-1.7,2.12-3.04,3.68-4.03,1.56-.98,3.36-1.48,5.38-1.48,1.73,0,3.3,.33,4.73,.99,1.43,.66,2.67,1.67,3.72,3.01,.22,.27,.3,.55,.24,.85-.05,.3-.23,.54-.53,.73-.24,.19-.51,.26-.81,.22-.3-.04-.55-.2-.77-.47-1.73-2.05-3.92-3.08-6.6-3.08-1.59,0-2.99,.39-4.19,1.17-1.2,.78-2.13,1.85-2.79,3.2-.66,1.35-.99,2.9-.99,4.65s.36,3.23,1.09,4.59,1.73,2.44,3.01,3.24,2.77,1.19,4.47,1.19c1.11,0,2.15-.16,3.14-.49,.98-.32,1.84-.82,2.57-1.5,.24-.22,.51-.34,.81-.36,.3-.03,.55,.07,.77,.28,.27,.24,.41,.52,.42,.83,.01,.31-.1,.57-.34,.79-1.97,1.81-4.42,2.71-7.37,2.71Z"/><path class="e" d="M264.42,111.43c-.35,0-.64-.11-.87-.34-.23-.23-.34-.52-.34-.87v-19.71c0-.38,.12-.67,.34-.89,.23-.22,.52-.32,.87-.32,.38,0,.67,.11,.89,.32,.22,.22,.32,.51,.32,.89v19.71c0,.35-.11,.64-.32,.87s-.51,.34-.89,.34Zm-.4-13.52c.16-1.73,.63-3.26,1.42-4.59,.78-1.34,1.79-2.38,3.04-3.14,1.24-.75,2.62-1.13,4.13-1.13,1.02,0,1.82,.12,2.39,.36s.78,.67,.65,1.29c-.08,.4-.27,.65-.57,.73-.3,.08-.66,.09-1.07,.02s-.88-.1-1.4-.1c-1.35,0-2.55,.28-3.6,.85s-1.88,1.34-2.47,2.33c-.59,.99-.89,2.11-.89,3.38h-1.62Z"/><path class="e" d="M289.11,111.63c-2.13,0-4.03-.48-5.69-1.44-1.66-.96-2.96-2.29-3.9-3.99-.95-1.7-1.42-3.64-1.42-5.83s.45-4.16,1.34-5.85c.89-1.69,2.12-3.01,3.68-3.99,1.56-.97,3.36-1.46,5.38-1.46s3.76,.46,5.3,1.4,2.74,2.21,3.6,3.84c.86,1.63,1.29,3.51,1.29,5.64,0,.35-.11,.63-.32,.83-.22,.2-.5,.3-.85,.3h-17.8v-2.1h18.45l-1.78,1.33c.05-1.75-.24-3.3-.89-4.65-.65-1.35-1.57-2.41-2.77-3.18-1.2-.77-2.61-1.15-4.23-1.15s-2.91,.38-4.11,1.15c-1.2,.77-2.14,1.83-2.83,3.18-.69,1.35-1.03,2.91-1.03,4.69s.36,3.3,1.09,4.65c.73,1.35,1.74,2.41,3.04,3.18,1.29,.77,2.78,1.15,4.45,1.15,1.05,0,2.11-.18,3.18-.55,1.07-.36,1.91-.84,2.53-1.44,.22-.22,.48-.33,.79-.34,.31-.01,.57,.07,.79,.26,.3,.24,.45,.51,.47,.81,.01,.3-.12,.57-.38,.81-.86,.78-1.99,1.43-3.38,1.94-1.39,.51-2.72,.77-3.99,.77Z"/><path class="e" d="M305.17,120.89c-.35,0-.64-.11-.87-.34-.23-.23-.34-.52-.34-.87v-19.54c.05-2.13,.57-4.03,1.56-5.69,.98-1.66,2.33-2.97,4.03-3.95,1.7-.97,3.6-1.46,5.71-1.46s4.09,.49,5.81,1.48c1.71,.98,3.06,2.33,4.05,4.05,.99,1.71,1.48,3.65,1.48,5.81s-.49,4.05-1.48,5.77c-.98,1.71-2.33,3.06-4.05,4.05-1.71,.99-3.65,1.48-5.81,1.48-1.94,0-3.69-.42-5.24-1.25-1.55-.84-2.76-1.96-3.62-3.36v12.62c0,.35-.11,.64-.32,.87s-.51,.34-.89,.34Zm10.08-11.49c1.7,0,3.22-.4,4.55-1.19,1.34-.8,2.39-1.88,3.18-3.24,.78-1.36,1.17-2.89,1.17-4.59s-.39-3.27-1.17-4.63c-.78-1.36-1.84-2.44-3.18-3.24-1.33-.8-2.85-1.19-4.55-1.19s-3.18,.4-4.53,1.19-2.41,1.88-3.18,3.24c-.77,1.36-1.15,2.91-1.15,4.63s.38,3.23,1.15,4.59c.77,1.36,1.83,2.44,3.18,3.24s2.86,1.19,4.53,1.19Z"/><path class="e" d="M342.77,111.67c-2.16,0-4.09-.49-5.81-1.48-1.71-.98-3.06-2.33-4.05-4.05-.99-1.71-1.48-3.63-1.48-5.77s.49-4.09,1.48-5.81c.98-1.71,2.33-3.06,4.05-4.05,1.71-.99,3.65-1.48,5.81-1.48s4.09,.49,5.79,1.48c1.7,.98,3.04,2.33,4.03,4.05,.98,1.71,1.48,3.65,1.48,5.81s-.49,4.05-1.48,5.77c-.98,1.71-2.33,3.06-4.03,4.05-1.7,.99-3.63,1.48-5.79,1.48Zm0-2.27c1.7,0,3.22-.4,4.55-1.19,1.34-.8,2.39-1.88,3.16-3.24,.77-1.36,1.15-2.91,1.15-4.63s-.38-3.23-1.15-4.59c-.77-1.36-1.82-2.44-3.16-3.24-1.33-.8-2.85-1.19-4.55-1.19s-3.18,.4-4.53,1.19c-1.35,.8-2.42,1.88-3.2,3.24s-1.17,2.91-1.17,4.63,.39,3.23,1.17,4.59,1.85,2.44,3.2,3.24c1.35,.8,2.86,1.19,4.53,1.19Z"/><path class="e" d="M361.34,111.43c-.35,0-.64-.11-.87-.34-.23-.23-.34-.52-.34-.87v-19.71c0-.38,.12-.67,.34-.89,.23-.22,.52-.32,.87-.32,.38,0,.67,.11,.89,.32,.22,.22,.32,.51,.32,.89v19.71c0,.35-.11,.64-.32,.87s-.51,.34-.89,.34Zm-.4-13.52c.16-1.73,.63-3.26,1.42-4.59,.78-1.34,1.79-2.38,3.04-3.14,1.24-.75,2.62-1.13,4.13-1.13,1.02,0,1.82,.12,2.39,.36s.78,.67,.65,1.29c-.08,.4-.27,.65-.57,.73-.3,.08-.66,.09-1.07,.02s-.88-.1-1.4-.1c-1.35,0-2.55,.28-3.6,.85s-1.88,1.34-2.47,2.33c-.59,.99-.89,2.11-.89,3.38h-1.62Z"/><path class="e" d="M376.11,92.29c-.32,0-.59-.1-.79-.3-.2-.2-.3-.46-.3-.79s.1-.59,.3-.79c.2-.2,.46-.3,.79-.3h10.97c.32,0,.59,.1,.79,.3s.3,.47,.3,.79-.1,.59-.3,.79-.46,.3-.79,.3h-10.97Zm10.8,19.14c-1.48-.03-2.81-.37-3.97-1.03-1.16-.66-2.06-1.58-2.71-2.75-.65-1.17-.97-2.5-.97-3.99v-20.15c0-.38,.11-.68,.34-.91,.23-.23,.52-.34,.87-.34,.38,0,.68,.11,.91,.34s.34,.53,.34,.91v20.15c0,1.56,.49,2.84,1.46,3.82,.97,.99,2.23,1.48,3.76,1.48h.89c.38,0,.68,.12,.91,.34,.23,.23,.34,.53,.34,.91,0,.35-.12,.64-.34,.87-.23,.23-.53,.34-.91,.34h-.93Z"/></g></g></g></svg>