<?xml version="1.0" encoding="UTF-8"?><svg xmlns="http://www.w3.org/2000/svg" viewBox="0 0 46.91 54.03"><defs><style>.d{fill:#9d9d9c;}</style></defs><g id="a"/><g id="b"><g id="c"><g><path class="d" d="M37.23,10.35h-8.78v-1.12h2.61c2.97,0,5.95,0,8.92,0,.41,0,.94-.02,1.47-.12,3.29-.66,5.44-3.34,5.47-6.82,0-.46,.01-1.55-1.04-2.18l-.18-.11H1.15l-.2,.16C.58,.44-.03,.92,0,1.8v.45c.02,.5,.02,1.03,.13,1.55,.65,3.24,3.32,5.42,6.64,5.43,2.76,0,5.53,0,8.29,0h3.4v1.12H9.67c-4.12,0-7.47,3.34-7.47,7.44,0,8.37,0,16.75,0,25.12v4.19c0,1.33,.71,2.04,2.06,2.04h1.08c-.29,2.06,.73,3.32,1.7,4.03,.78,.57,1.6,.85,2.44,.85,.72,0,1.45-.21,2.14-.64,1.57-.96,2.28-2.43,2.04-4.22h19.58c-.23,1.59,.33,2.94,1.63,3.94,1.4,1.08,3,1.2,4.53,.35,1.21-.68,2.49-1.96,2.17-4.32h1.07c1.34,0,2.06-.71,2.06-2.04v-5.86c0-7.82,0-15.63,0-23.45,0-4.1-3.35-7.43-7.47-7.44Zm.83,39.42c0,.16-.07,.32-.2,.45s-.3,.18-.45,.2c-.17,0-.32-.07-.44-.18-.12-.12-.19-.29-.19-.47,0-.18,.06-.33,.18-.44,.12-.11,.29-.17,.47-.17,.34,0,.63,.3,.63,.62Zm-27.95,0c0,.18-.07,.35-.19,.47-.12,.12-.27,.18-.44,.18h0c-.16,0-.33-.08-.45-.21-.13-.13-.2-.29-.2-.44,0-.33,.3-.62,.64-.62h.01c.18,0,.34,.06,.45,.17,.11,.11,.17,.27,.18,.45ZM24.83,9.24v1.08h-2.75v-1.08h2.75Zm16.32,28.85v7.44H5.75v-1.88c0-8.53,0-17.06,0-25.59,0-2.02,1.16-3.56,3.02-4.02,.33-.08,.69-.12,1.09-.12,9.05,0,18.11,0,27.16,0,2.43,0,4.13,1.7,4.13,4.12,0,6.69,0,13.37,0,20.06Zm1.99-34.51c-.39,1.1-1.48,2-2.64,2.06-.13,0-.27,0-.42,0H6.82c-1.49,0-2.6-.76-3.06-2.07H43.14Z"/><path class="d" d="M23.44,15.58c-7.82,0-14.17,6.34-14.17,14.14,0,3.78,1.47,7.33,4.15,10,2.68,2.67,6.23,4.13,10.02,4.13h0c7.82,0,14.17-6.34,14.17-14.14,0-7.79-6.36-14.14-14.18-14.14Zm10.62,14.14c0,2.81-1.1,5.45-3.11,7.46-2.01,2-4.67,3.11-7.49,3.11h0c-2.85,0-5.53-1.11-7.55-3.14-2-2-3.09-4.65-3.08-7.45,.02-5.83,4.78-10.56,10.62-10.56h.01c5.85,0,10.61,4.75,10.61,10.58Z"/><path class="d" d="M25.4,26.97c-.22-.14-.22-.17-.19-.33,.02-.14,.02-.28,0-.52v-.25c0-.2,0-.4,0-.6-.04-.99-.77-1.71-1.75-1.72h-.03c-1,0-1.74,.73-1.77,1.75-.01,.48-.02,.96,0,1.44,0,.08,0,.11-.06,.13-1.27,.77-1.86,2.32-1.45,3.78,.4,1.41,1.72,2.42,3.21,2.46,.03,0,.06,0,.09,0,1.41,0,2.72-.93,3.19-2.29,.51-1.46,0-3.04-1.26-3.86Zm-1.97,2.18v.75h0v-.75h0Z"/><path class="d" d="M23.48,36.5h0c-.97,0-1.78,.77-1.81,1.77-.01,.53,.16,1.01,.5,1.35,.32,.33,.76,.52,1.25,.52h.03c.99,0,1.75-.75,1.78-1.75,.01-.52-.17-1-.51-1.35-.32-.34-.76-.53-1.23-.54Z"/><path class="d" d="M17.32,21.82h0c-.49,0-.95,.19-1.29,.53-.33,.34-.51,.79-.5,1.26,.02,.97,.88,1.82,1.85,1.82,.48,0,.93-.19,1.27-.54,.34-.34,.52-.8,.52-1.27-.01-.98-.86-1.8-1.84-1.8Z"/><path class="d" d="M29.58,21.82h0c-.98,0-1.83,.82-1.85,1.79-.01,.48,.17,.93,.51,1.28,.34,.35,.79,.54,1.27,.54h.01c.96,0,1.82-.84,1.85-1.8,.01-.48-.17-.93-.5-1.27-.34-.35-.79-.54-1.28-.54Z"/><path class="d" d="M16.64,29.69c0-.98-.8-1.76-1.8-1.77-.5,.01-.99,.2-1.34,.55-.34,.35-.52,.8-.52,1.27,.02,.96,.83,1.75,1.81,1.77h.03c.48,0,.94-.19,1.28-.53,.35-.34,.54-.8,.53-1.29Z"/><path class="d" d="M30.25,29.73c0,.98,.8,1.76,1.79,1.78h.03c.48,0,.95-.2,1.3-.54,.35-.34,.54-.81,.54-1.27,0-.47-.2-.92-.55-1.26-.36-.35-.85-.53-1.34-.52-1,.03-1.77,.83-1.76,1.81Z"/><path class="d" d="M23.43,22.92h.02c.99,0,1.75-.76,1.77-1.77,0-.52-.17-1-.51-1.35-.32-.33-.77-.52-1.25-.52-.97,0-1.77,.75-1.79,1.77,0,.52,.17,1,.51,1.35,.32,.33,.77,.52,1.25,.52Z"/><path class="d" d="M17.34,34c-.97,.02-1.82,.88-1.81,1.85,0,.47,.2,.92,.54,1.25,.34,.33,.78,.51,1.25,.51h.04c.97-.02,1.81-.89,1.8-1.85,0-.48-.19-.92-.53-1.25-.34-.33-.8-.5-1.29-.5Z"/><path class="d" d="M29.51,34.01h-.02c-.49,0-.94,.2-1.28,.54-.33,.34-.5,.8-.49,1.27,.03,.97,.87,1.79,1.85,1.79h.02c.48,0,.94-.21,1.28-.55,.33-.35,.51-.8,.49-1.27-.03-.97-.88-1.78-1.85-1.78Z"/></g></g></g></svg>