<svg width="25" height="25" viewBox="0 0 159 161" fill="white" xmlns="http://www.w3.org/2000/svg">
<path d="M-2.72029e-06 62.2331L-2.7112e-06 62.0251C0.0352909 60.2689 0.591581 58.564 1.59654 57.1321C2.60151 55.7003 4.00865 54.6077 5.63505 53.9964L146.216 0.610022C147.917 -0.0358938 149.766 -0.172283 151.541 0.21715C153.317 0.606582 154.944 1.50537 156.229 2.80614C157.513 4.1069 158.401 5.75464 158.786 7.55251C159.17 9.35038 159.035 11.2223 158.398 12.9448L105.679 155.292C105.071 156.935 103.991 158.357 102.578 159.374C101.165 160.391 99.4842 160.957 97.7512 160.998C96.0182 161.039 94.3128 160.553 92.8546 159.604C91.3965 158.655 90.2524 157.285 89.5698 155.672L71.4675 112.911L83.1734 107.839L97.2986 141.207L143.947 15.2423L18.9338 62.7098C25.3252 65.8189 34.5767 70.2365 43.718 74.3092C48.9223 68.6896 55.0833 64.9465 61.665 63.4351C67.8828 61.9919 74.3936 62.6034 80.2431 65.1798C88.8335 69.0395 93.9526 76.5915 92.9809 83.9457C92.7142 86.0714 92.0042 88.1153 90.8979 89.942C89.7917 91.7686 88.3145 93.3362 86.5644 94.5408C81.6757 97.944 74.6181 98.7606 66.704 96.8434C62.226 95.7631 55.7595 93.3641 48.6718 90.4326C46.9487 95.474 46.2174 102.286 46.5831 110.35L46.8786 116.791L34.1559 117.379L33.8654 110.938C33.5198 103.3 33.9405 93.6431 36.9609 85.3608C21.6136 78.4833 6.79211 71.0683 5.03898 70.1908C3.53499 69.4918 2.26071 68.3704 1.36751 66.9598C0.474286 65.5493 -0.000338487 63.9087 -2.72029e-06 62.2331ZM80.3684 82.1503C80.3684 81.1359 78.8657 78.671 75.0839 76.9719C70.2653 74.8113 63.3229 74.7453 56.631 79.8223C61.8203 81.9068 66.4034 83.54 69.6542 84.3312C74.6632 85.5383 77.934 84.9195 79.3465 83.9356C79.6306 83.756 79.8692 83.5115 80.0432 83.2217C80.2172 82.932 80.3217 82.605 80.3483 82.2669L80.3684 82.1503Z" />
</svg>
