<?xml version="1.0" encoding="UTF-8"?><svg xmlns="http://www.w3.org/2000/svg" viewBox="0 0 258.49 320.35"><defs><style>.d{fill:#fff;}.e{fill:#ccc;}.f{fill:#ffb027;}</style></defs><g id="a"/><g id="b"><g id="c"><g><path class="e" d="M132.5,320.14c-2.16,.28-4.35,.28-6.51,0-33.76-4.42-64.77-20.51-87.9-45.72C13.53,247.62,0,212.85,0,176.51V65.66c0-13.03,9.17-24.32,21.95-26.83C54.79,32.38,86.46,20.49,115.45,3.71c8.54-4.95,19.05-4.95,27.59,0,28.98,16.78,60.66,28.67,93.5,35.12,12.78,2.51,21.95,13.8,21.95,26.83v110.85c0,36.35-13.53,71.12-38.09,97.9-23.12,25.22-54.14,41.3-87.9,45.72Z"/><path class="f" d="M130.55,300.09c-.86,.12-1.75,.12-2.61,0-28.47-4.08-54.67-17.88-74.18-39.16-21.15-23.06-32.79-52.99-32.79-84.28V68.14c0-4.32,3.01-8.04,7.23-8.95,33.78-7.33,66.5-19.73,96.61-36.64,2.75-1.55,6.13-1.55,8.88,0,30.11,16.91,62.82,29.31,96.61,36.64,4.22,.91,7.23,4.64,7.23,8.95v108.5c0,31.29-11.65,61.22-32.79,84.28-19.51,21.28-45.72,35.08-74.18,39.16Z"/></g><path class="d" d="M187,164.48l11.68-4.52c0-5.67-.7-11.22-2.02-16.54l-12.45-1.53c-.78-2.37-1.71-4.67-2.79-6.89l7.86-9.74c-2.81-4.82-6.18-9.29-10.05-13.3l-11.52,4.9c-1.85-1.65-3.8-3.18-5.86-4.58l1.94-12.36c-4.77-2.74-9.92-4.93-15.36-6.49l-7.53,10c-1.78-.36-3.6-.65-5.44-.86-.64-.07-1.27-.11-1.9-.16l-4.52-11.69c-5.67,.01-11.22,.7-16.54,2.02l-1.53,12.45c-2.36,.78-4.66,1.71-6.88,2.79l-9.74-7.86c-4.82,2.81-9.29,6.18-13.3,10.05l4.9,11.53c-1.64,1.84-3.18,3.79-4.58,5.84l-12.37-1.93c-2.74,4.76-4.92,9.91-6.49,15.36l10,7.53c-.37,1.78-.66,3.59-.85,5.44-.07,.64-.11,1.27-.16,1.91l-11.69,4.51c.02,5.67,.7,11.22,2.03,16.54l12.45,1.53c.79,2.36,1.72,4.66,2.79,6.88l-7.86,9.74c2.81,4.82,6.18,9.29,10.05,13.3l11.52-4.9c1.85,1.65,3.79,3.18,5.85,4.58l-1.94,12.37c4.77,2.74,9.91,4.93,15.35,6.49l7.53-10c1.79,.37,3.6,.66,5.45,.86,.63,.07,1.27,.11,1.9,.16l4.52,11.69c5.68-.01,11.22-.7,16.54-2.03l1.53-12.45c2.36-.79,4.66-1.71,6.88-2.79l9.74,7.85c4.82-2.81,9.29-6.18,13.3-10.04l-4.89-11.52c1.64-1.85,3.17-3.8,4.57-5.85l12.36,1.93c2.74-4.77,4.93-9.92,6.49-15.36l-9.99-7.53c.36-1.79,.66-3.6,.86-5.45,.07-.63,.11-1.27,.16-1.9Zm-27.78-1.08c-1.79,16.56-16.65,28.53-33.21,26.74-16.56-1.78-28.53-16.65-26.74-33.2,1.79-16.56,16.65-28.53,33.21-26.74,16.56,1.78,28.53,16.65,26.74,33.2Z"/></g></g></svg>