<?xml version="1.0" encoding="UTF-8"?><svg xmlns="http://www.w3.org/2000/svg" viewBox="0 0 10.89 21.16"><defs><style>.d{fill:#1d1d1b;}.e{fill:#010101;}</style></defs><g id="a"/><g id="b"><g id="c"><path class="e" d="M10.47,11.16c.23,0,.42,.22,.42,.5s-.19,.5-.42,.5H4.59c-.23,0-.42-.22-.42-.5s.19-.5,.42-.5h5.87Zm0,2c.23,0,.42,.22,.42,.5s-.19,.5-.42,.5H4.59c-.23,0-.42-.22-.42-.5s.19-.5,.42-.5h5.87Zm0,2c.23,0,.42,.22,.42,.5s-.19,.5-.42,.5H4.59c-.23,0-.42-.22-.42-.5s.19-.5,.42-.5h5.87Zm0,2c.23,0,.42,.22,.42,.5v1c0,.28-.19,.5-.42,.5H4.59c-.23,0-.42-.22-.42-.5v-1c0-.28,.19-.5,.42-.5h5.87Zm0,3c.23,0,.42,.22,.42,.5s-.19,.5-.42,.5H4.59c-.23,0-.42-.22-.42-.5s.19-.5,.42-.5h5.87Z"/><path class="e" d="M10.47,0c.23,0,.42,.22,.42,.5s-.19,.5-.42,.5H4.59c-.23,0-.42-.22-.42-.5s.19-.5,.42-.5h5.87Zm0,2c.23,0,.42,.22,.42,.5s-.19,.5-.42,.5H4.59c-.23,0-.42-.22-.42-.5s.19-.5,.42-.5h5.87Zm0,2c.23,0,.42,.22,.42,.5s-.19,.5-.42,.5H4.59c-.23,0-.42-.22-.42-.5s.19-.5,.42-.5h5.87Zm0,2c.23,0,.42,.22,.42,.5v1c0,.28-.19,.5-.42,.5H4.59c-.23,0-.42-.22-.42-.5v-1c0-.28,.19-.5,.42-.5h5.87Zm0,3c.23,0,.42,.22,.42,.5s-.19,.5-.42,.5H4.59c-.23,0-.42-.22-.42-.5s.19-.5,.42-.5h5.87Z"/><g><path class="d" d="M0,1.37c0-.22,.05-.42,.16-.6,.1-.18,.24-.31,.42-.42,.18-.1,.38-.15,.6-.16h1.94c.07,0,.12,.02,.16,.06,.04,.04,.06,.09,.06,.15,0,.07-.02,.12-.06,.16-.04,.04-.09,.06-.16,.06H1.97c.12,.1,.21,.22,.28,.36s.1,.29,.1,.46c0,.21-.05,.39-.16,.56-.1,.16-.24,.29-.42,.39-.18,.09-.38,.14-.6,.14s-.42-.05-.6-.15-.32-.24-.42-.42c-.1-.18-.16-.38-.16-.6Zm.38,0c0,.14,.03,.27,.1,.39s.17,.2,.29,.27c.12,.07,.26,.1,.41,.1s.29-.03,.41-.1c.12-.07,.21-.16,.28-.27,.07-.11,.1-.24,.1-.39s-.03-.27-.1-.38c-.07-.11-.16-.2-.28-.27-.12-.07-.26-.1-.41-.1s-.29,.03-.41,.1c-.12,.06-.22,.15-.29,.27s-.1,.24-.1,.38Z"/><path class="d" d="M0,4.57c0-.21,.05-.39,.16-.56,.1-.16,.24-.29,.42-.39,.18-.09,.38-.14,.6-.14s.43,.05,.6,.15c.18,.1,.32,.24,.42,.42s.16,.38,.16,.6-.05,.42-.16,.6c-.1,.18-.24,.31-.42,.42-.18,.1-.38,.16-.6,.16v-.17c-.22,0-.42-.05-.6-.14-.18-.1-.32-.22-.42-.39-.1-.16-.16-.35-.16-.56Zm.01,1.04c0-.06,.02-.11,.06-.16,.04-.04,.09-.06,.15-.06H.88l.45,.08-.15,.35H.23c-.06,0-.11-.02-.15-.06s-.06-.09-.06-.16Zm.37-.95c0,.14,.03,.27,.1,.39s.16,.2,.28,.27c.12,.06,.26,.1,.41,.1s.29-.03,.41-.1c.12-.07,.22-.15,.28-.27,.07-.11,.1-.24,.1-.39s-.03-.27-.1-.38c-.07-.11-.16-.21-.28-.27-.12-.07-.26-.1-.41-.1s-.29,.03-.41,.1c-.12,.07-.22,.16-.28,.27s-.1,.24-.1,.38Z"/><path class="d" d="M.02,7.1c0-.07,.02-.12,.05-.16,.04-.04,.09-.06,.16-.06h1.9c.07,0,.12,.02,.16,.06,.04,.04,.06,.09,.06,.16s-.02,.12-.05,.16c-.04,.04-.09,.05-.16,.05H.23c-.07,0-.12-.02-.16-.05-.04-.04-.06-.09-.06-.16Zm1.45,0c.17,0,.32,.04,.46,.13,.13,.08,.24,.2,.32,.34,.08,.14,.12,.3,.12,.47s-.03,.3-.08,.38-.12,.12-.2,.1c-.04,0-.07-.02-.09-.05-.02-.02-.03-.05-.04-.08s0-.06,0-.1c.04-.18,.04-.34,0-.49s-.09-.26-.17-.34c-.08-.08-.19-.13-.32-.13v-.22Z"/><path class="d" d="M0,10.25c0-.23,.05-.43,.16-.61,.1-.18,.24-.32,.42-.42,.18-.1,.38-.15,.6-.15s.43,.05,.61,.15c.18,.1,.32,.24,.42,.41s.15,.37,.15,.6c0,.17-.03,.32-.1,.46-.06,.14-.16,.26-.29,.37-.05,.04-.09,.05-.14,.04-.05-.01-.09-.04-.13-.09-.03-.04-.04-.08-.03-.13,0-.05,.03-.09,.07-.13,.15-.14,.22-.31,.22-.52,0-.14-.03-.27-.1-.38s-.16-.2-.28-.26-.26-.09-.42-.09c-.15,0-.29,.03-.41,.1-.12,.06-.21,.15-.28,.27-.07,.11-.1,.24-.1,.4,0,.1,.01,.19,.04,.26,.02,.08,.06,.14,.11,.21,.04,.04,.06,.09,.06,.14,0,.05,0,.09-.04,.13-.04,.05-.08,.08-.13,.08-.05,0-.09-.01-.13-.05-.19-.2-.28-.46-.28-.77Z"/><path class="d" d="M0,13.22c0-.23,.05-.43,.15-.61s.24-.31,.42-.41,.38-.15,.61-.15,.44,.05,.61,.15,.32,.24,.42,.41,.15,.38,.15,.61-.05,.43-.15,.6-.24,.31-.42,.41-.38,.15-.61,.15-.43-.05-.61-.15-.32-.24-.42-.41-.15-.38-.15-.61Zm.38,0c0,.15,.03,.28,.1,.39,.07,.11,.16,.2,.28,.27,.12,.06,.26,.1,.41,.1s.29-.03,.41-.1c.12-.06,.21-.15,.28-.27s.1-.24,.1-.39-.03-.28-.1-.39-.16-.2-.28-.27c-.12-.07-.26-.1-.41-.1s-.29,.03-.41,.1c-.12,.06-.21,.15-.28,.27-.07,.11-.1,.24-.1,.39Z"/><path class="d" d="M0,16.51c0-.22,.05-.42,.16-.6s.24-.32,.42-.42,.38-.15,.6-.15,.42,.05,.6,.14c.18,.1,.32,.22,.42,.39,.1,.16,.16,.35,.16,.56,0,.17-.03,.32-.1,.46s-.16,.26-.28,.36h1.15c.07,0,.12,.02,.16,.06s.06,.09,.06,.16-.02,.12-.06,.16-.09,.06-.16,.06H1.18c-.22,0-.42-.05-.6-.16s-.32-.24-.42-.42c-.1-.18-.16-.37-.16-.6Zm.38,0c0,.14,.03,.27,.1,.39s.17,.2,.29,.27c.12,.06,.26,.1,.41,.1s.29-.03,.41-.1c.12-.07,.21-.15,.28-.27,.07-.11,.1-.24,.1-.39s-.03-.27-.1-.38c-.07-.11-.16-.21-.28-.27-.12-.07-.26-.1-.41-.1s-.29,.03-.41,.1c-.12,.07-.22,.16-.29,.27s-.1,.24-.1,.38Z"/><path class="d" d="M0,19.95c0-.23,.05-.44,.15-.63,.1-.18,.24-.33,.42-.43s.38-.15,.61-.15,.44,.05,.61,.15,.32,.23,.42,.41,.15,.37,.15,.6-.05,.41-.15,.57-.23,.28-.4,.36c-.17,.08-.37,.13-.59,.13-.05,0-.1-.02-.13-.06-.04-.04-.05-.08-.05-.14v-1.71h.34v1.7l-.12-.17c.14,0,.27-.03,.38-.08,.11-.05,.2-.13,.27-.23,.07-.1,.1-.22,.1-.36,0-.16-.04-.3-.11-.41s-.17-.2-.29-.26c-.12-.06-.26-.09-.42-.09s-.29,.04-.42,.11c-.12,.07-.22,.17-.29,.29-.07,.12-.11,.27-.11,.43,0,.09,.02,.18,.05,.27,.03,.09,.07,.17,.11,.22,.03,.04,.05,.09,.05,.14,0,.05-.01,.09-.04,.13-.04,.05-.09,.07-.14,.08s-.1-.02-.13-.07c-.08-.1-.14-.22-.19-.36s-.07-.28-.07-.41Z"/></g></g></g></svg>